<?xml version="1.0" standalone="no"?>
<!DOCTYPE svg PUBLIC "-//W3C//DTD SVG 20010904//EN"
 "http://www.w3.org/TR/2001/REC-SVG-20010904/DTD/svg10.dtd">
<svg version="1.0" xmlns="http://www.w3.org/2000/svg"
 width="72.000000pt" height="160.000000pt" viewBox="0 0 72.000000 160.000000"
 preserveAspectRatio="xMidYMid meet">
<metadata>
Created by potrace 1.15, written by Peter Selinger 2001-2017
</metadata>
<g transform="translate(0.000000,160.000000) scale(0.100000,-0.100000)"
fill="#000000" stroke="none">
<path d="M567 1360 c-31 -24 -63 -86 -73 -137 -3 -18 -9 -33 -13 -33 -11 0
-41 -67 -71 -160 -81 -247 -128 -356 -171 -394 -32 -29 -38 -63 -12 -73 11 -5
26 5 47 29 43 50 98 71 162 63 54 -6 58 -11 104 -115 7 -18 -9 -80 -28 -100
-49 -57 -62 -70 -88 -83 -16 -8 -55 -18 -86 -22 -66 -8 -121 6 -159 41 -14 14
-27 22 -30 20 -2 -2 -5 13 -7 34 -1 21 2 41 8 45 15 9 12 35 -4 35 -23 0 -66
-40 -66 -61 0 -13 4 -18 12 -13 6 4 8 3 5 -3 -22 -36 57 -118 143 -148 61 -21
78 -19 174 21 96 40 135 77 161 153 18 53 19 118 2 147 -36 62 -57 77 -123 90
-36 6 -74 10 -85 7 -21 -6 -26 15 -10 45 19 36 42 113 44 145 1 19 7 33 12 30
6 -2 18 19 26 46 10 33 12 52 5 54 -5 2 -1 16 11 33 24 34 31 63 19 82 -4 7
-5 16 -1 20 3 3 10 0 15 -8 8 -12 10 -11 10 5 0 21 2 25 64 139 42 77 43 97 3
66z"/>
</g>
</svg>
