<?xml version="1.0" encoding="UTF-8" standalone="no"?>
<!DOCTYPE svg PUBLIC "-//W3C//DTD SVG 1.1//EN" "http://www.w3.org/Graphics/SVG/1.1/DTD/svg11.dtd">
<svg viewBox="0 0 375 88" height="88.0pt" width="375.0pt" xmlns="http://www.w3.org/2000/svg" version="1.1">
<path id="pathA" d="M 0.00 0.00 L 375.00 0.00 L 375.00 88.00 L 42.60 88.00 L 42.64 87.23 L 41.98 86.59 C 41.03 86.62 40.32 87.08 39.85 88.00 L 0.00 88.00 L 0.00 0.00 Z" fill="#ffffff" />
<path id="pathB" d="M 252.90 21.22 C 254.82 21.62 257.19 23.01 257.66 25.06 C 258.86 31.29 257.41 37.24 254.87 42.93 C 254.31 44.34 253.11 44.51 251.91 45.20 C 252.46 42.98 253.33 40.91 254.30 38.85 C 250.30 39.02 246.61 39.54 242.79 37.96 C 245.41 35.75 248.90 36.87 252.13 36.86 C 253.06 36.57 253.98 36.29 254.91 36.00 C 256.05 32.38 256.18 28.77 256.01 25.01 C 253.77 23.08 251.75 22.21 248.92 23.71 C 244.28 28.06 241.41 32.88 239.86 39.07 C 240.91 41.93 242.41 44.41 244.11 46.91 C 242.58 46.64 241.29 47.13 240.29 45.66 C 237.83 42.28 237.50 37.19 239.61 33.54 C 241.35 30.21 243.25 26.61 245.95 23.95 C 247.82 22.36 250.31 20.60 252.90 21.22 Z" fill="#8a868a" />
<path id="pathC" d="M 186.48 22.63 L 186.52 22.68 L 186.62 22.84 L 187.49 24.36 C 185.48 31.96 181.03 38.29 178.53 45.54 C 177.42 48.23 178.12 50.97 175.16 52.24 C 174.82 49.51 174.91 47.41 175.89 44.83 C 174.76 45.15 173.64 45.47 172.51 45.80 C 173.45 44.82 174.38 43.85 175.26 42.82 C 171.95 40.54 168.59 40.97 164.97 42.13 C 162.01 42.82 159.90 45.12 159.06 47.98 C 158.92 49.71 158.81 51.81 160.99 52.16 C 165.38 52.65 170.02 49.20 174.15 47.87 C 171.13 51.41 166.42 53.79 161.90 54.68 C 159.38 55.32 157.06 53.57 156.90 51.03 C 156.50 47.72 157.90 45.22 159.32 42.40 C 164.85 38.65 171.51 37.77 177.03 42.08 C 180.52 35.85 182.72 29.03 186.33 22.88 L 186.48 22.63 Z" fill="#8a868a" />
<path id="pathD" d="M 361.47 25.51 C 362.00 27.01 362.55 28.50 363.12 29.99 C 361.37 36.96 355.57 41.70 348.88 43.67 C 347.25 43.83 344.42 42.73 344.03 40.98 C 343.33 35.74 346.50 30.48 349.42 26.37 C 353.40 23.38 357.06 23.37 361.47 25.51 Z" fill="#8a868a" />
<path id="pathE" d="M 320.00 24.66 C 323.54 25.84 322.37 29.48 325.09 32.00 C 326.33 31.97 327.57 31.94 328.81 31.92 C 330.20 30.30 331.51 28.54 333.09 27.10 C 334.69 26.67 335.29 27.29 334.89 28.98 C 333.17 31.55 330.60 33.30 329.14 36.15 C 325.80 42.99 322.64 51.60 316.79 56.76 C 316.23 56.44 315.66 56.11 315.09 55.79 C 317.78 52.11 320.37 48.50 322.41 44.40 C 324.17 40.86 325.72 37.28 327.97 34.01 C 322.42 34.00 319.38 30.07 320.00 24.66 Z" fill="#8a868a" />
<path id="pathF" d="M 360.18 27.06 C 360.14 29.79 360.39 32.20 358.57 34.47 C 356.16 38.20 350.52 42.65 345.95 40.25 C 346.95 35.28 348.92 31.05 352.26 27.23 C 354.61 25.80 357.63 26.78 360.18 27.06 Z" fill="#ffffff" />
<path id="pathG" d="M 304.36 27.38 C 306.97 26.45 309.94 27.20 311.58 29.46 C 312.87 33.32 311.73 37.86 307.95 39.85 C 305.61 41.15 301.16 43.18 298.76 41.28 C 296.42 39.99 297.81 37.04 298.23 35.08 C 299.51 32.30 301.54 28.78 304.36 27.38 Z" fill="#8a868a" />
<path id="pathH" d="M 278.27 28.38 C 281.19 27.59 283.86 28.26 286.61 29.24 C 287.14 31.52 288.55 34.06 287.44 36.32 C 286.41 40.01 282.39 41.89 278.97 42.71 C 275.74 43.47 274.05 41.31 271.53 39.80 C 270.86 41.33 270.19 42.86 269.48 44.38 C 268.22 49.50 265.47 53.74 263.61 58.68 C 262.75 58.71 261.90 58.73 261.05 58.76 C 262.52 54.17 265.01 50.07 266.57 45.53 C 268.22 40.73 271.32 36.86 272.43 31.82 C 273.42 31.72 273.85 31.11 274.44 32.23 C 274.08 34.15 273.39 36.00 273.08 37.94 C 275.98 42.03 282.12 40.13 284.91 36.89 C 286.87 35.30 285.96 31.95 284.14 30.67 C 282.15 29.63 279.30 30.31 277.10 30.37 C 277.47 29.69 277.86 29.03 278.27 28.38 Z" fill="#8a868a" />
<path id="pathI" d="M 307.01 28.98 C 309.81 29.59 310.83 32.36 310.10 34.98 C 307.52 37.59 304.62 39.75 300.90 40.32 C 300.40 38.50 299.07 37.17 300.33 35.36 C 301.93 32.95 304.04 29.69 307.01 28.98 Z" fill="#ffffff" />
<path id="pathJ" d="M 198.01 34.95 C 199.96 34.96 201.78 36.85 203.31 37.92 C 201.86 40.03 200.82 41.73 198.01 41.94 C 196.11 41.95 192.38 42.82 191.72 40.37 C 194.44 40.02 197.56 40.17 199.95 38.79 C 200.97 35.68 197.08 37.48 195.31 37.10 C 192.80 38.77 190.92 40.03 189.73 42.94 C 190.60 44.60 191.45 46.26 192.28 47.94 C 194.16 48.11 196.13 48.38 198.01 48.29 C 200.73 48.09 203.28 46.61 205.94 45.99 C 206.68 46.54 207.40 47.12 208.10 47.72 C 204.39 49.40 200.12 51.10 195.98 50.85 C 193.80 50.69 191.62 49.31 189.68 48.35 C 189.14 46.84 188.59 45.33 188.03 43.82 C 188.62 42.18 189.21 40.54 189.78 38.90 C 192.26 37.28 195.01 35.36 198.01 34.95 Z" fill="#8a868a" />
<path id="pathK" d="M 32.32 37.12 C 30.62 38.60 28.65 38.89 26.55 39.50 C 20.99 40.96 15.26 43.10 10.78 46.79 C 7.72 49.21 6.10 53.18 5.85 57.00 C 5.86 58.53 5.86 59.86 7.33 60.70 C 12.03 61.84 15.59 59.80 19.32 57.26 C 16.36 56.52 13.58 56.39 11.47 53.90 C 16.08 53.18 20.56 56.18 25.60 54.55 C 27.89 53.83 30.43 51.75 32.86 52.16 C 31.32 55.82 29.33 59.24 28.12 63.06 C 27.24 65.13 27.18 67.28 25.04 68.43 C 24.40 63.50 26.90 60.08 28.31 55.61 C 23.59 56.77 20.12 59.66 15.92 61.86 C 12.82 63.55 9.50 63.00 6.08 63.03 C 5.50 62.57 4.92 62.10 4.34 61.64 C 3.90 59.72 2.98 57.37 3.44 55.40 C 4.11 52.71 5.28 50.11 6.72 47.75 C 8.15 45.36 11.05 43.86 13.29 42.25 C 17.28 39.41 22.28 38.31 27.00 37.04 C 28.96 36.47 30.38 36.60 32.32 37.12 Z" fill="#8a868a" />
<path id="pathL" d="M 101.00 45.20 C 106.44 45.88 110.00 51.63 107.57 56.66 C 103.55 60.12 97.07 59.04 93.95 54.90 C 98.42 55.12 101.64 58.11 105.83 55.95 C 106.30 54.93 106.77 53.92 107.26 52.91 C 105.48 49.40 104.04 47.59 99.91 47.05 C 95.32 50.06 93.33 54.59 91.56 59.58 C 90.17 63.87 87.23 67.09 85.27 71.19 C 83.58 74.08 82.18 77.75 78.98 79.20 C 80.32 74.91 82.75 70.88 85.04 67.03 C 89.16 61.83 89.93 55.27 93.90 49.86 C 95.11 49.18 97.05 48.95 97.77 47.71 C 98.80 46.64 99.17 44.81 101.00 45.20 Z" fill="#8a868a" />
<path id="pathM" d="M 119.80 44.86 C 120.27 45.70 120.73 46.54 121.18 47.38 C 120.15 47.62 119.28 48.02 118.58 48.58 C 117.37 51.37 117.84 55.10 117.93 58.08 C 119.63 58.10 121.33 58.17 123.01 57.93 C 125.16 57.27 127.10 55.81 129.04 54.70 C 129.11 52.57 129.26 50.93 128.06 49.06 C 126.25 49.00 124.45 48.90 122.64 48.75 C 125.04 46.74 127.22 46.47 130.10 47.77 C 132.49 49.92 131.70 53.16 130.58 55.75 C 127.97 58.34 124.18 59.91 120.60 60.54 C 118.84 60.84 117.94 60.61 116.70 59.30 C 114.18 56.08 115.67 51.01 116.65 47.46 C 117.05 45.74 118.44 45.57 119.80 44.86 Z" fill="#8a868a" />
<path id="pathN" d="M 53.12 46.72 C 55.95 47.74 59.53 48.66 58.67 52.48 C 54.26 52.78 50.17 53.99 45.96 55.23 C 46.62 56.49 47.28 57.74 47.92 59.00 C 50.92 59.20 53.83 59.42 56.78 58.67 C 58.91 58.44 60.93 57.13 62.24 59.55 C 58.54 60.38 54.77 61.47 50.97 61.70 C 48.16 61.80 46.45 59.80 44.53 58.10 C 43.27 59.65 42.80 59.98 40.75 60.20 C 42.18 56.63 44.21 53.32 45.93 49.88 C 46.56 49.47 47.22 49.09 47.89 48.73 C 47.55 50.25 47.19 51.77 46.83 53.29 C 50.09 52.43 53.24 51.27 56.49 50.36 C 54.47 48.85 52.22 48.04 49.85 47.26 C 51.02 46.92 51.87 46.29 53.12 46.72 Z" fill="#8a868a" />
<path id="pathO" d="M 70.09 48.25 C 69.07 51.70 67.23 54.42 67.93 58.18 C 72.26 58.14 75.33 55.95 78.78 53.68 C 78.97 52.68 79.15 51.69 79.34 50.69 C 80.56 51.63 82.43 52.28 81.29 54.13 C 78.11 58.15 73.02 59.97 68.14 60.86 C 64.77 58.02 65.57 52.91 67.35 49.40 C 68.25 49.00 69.16 48.62 70.09 48.25 Z" fill="#8a868a" />
<path id="pathP" d="M 41.98 86.59 L 42.64 87.23 L 42.60 88.00 L 39.85 88.00 C 40.32 87.08 41.03 86.62 41.98 86.59 Z" fill="#8a868a" /></svg>