<?xml version="1.0" standalone="no"?>
<!DOCTYPE svg PUBLIC "-//W3C//DTD SVG 20010904//EN"
 "http://www.w3.org/TR/2001/REC-SVG-20010904/DTD/svg10.dtd">
<svg version="1.0" xmlns="http://www.w3.org/2000/svg"
 width="1077.000000pt" height="1434.000000pt" viewBox="0 0 1077.000000 1434.000000"
 preserveAspectRatio="xMidYMid meet">

<g transform="translate(0.000000,1434.000000) scale(0.100000,-0.100000)"
fill="#000000" stroke="none">
<path d="M0 13169 c0 -777 3 -1168 10 -1164 6 3 10 1 10 -4 0 -6 -4 -11 -10
-11 -5 0 -10 -12 -9 -27 0 -24 2 -25 8 -9 7 19 8 19 13 -2 4 -15 2 -22 -8 -22
-21 0 -18 -57 4 -63 16 -4 16 -5 0 -6 -23 -1 -24 -56 -2 -100 9 -18 14 -41 11
-52 -3 -12 0 -19 9 -19 21 0 18 -57 -4 -63 -12 -3 -13 -5 -2 -6 13 -1 15 -29
17 -182 1 -99 7 -261 13 -360 6 -99 7 -185 4 -191 -4 -6 -7 -74 -6 -152 0
-103 4 -151 16 -177 11 -27 14 -57 9 -127 -4 -67 -2 -96 7 -107 9 -11 9 -15 1
-15 -8 0 -11 -23 -9 -75 1 -41 5 -69 10 -62 5 7 8 1 8 -18 0 -23 -3 -27 -10
-15 -7 10 -9 -17 -9 -85 1 -64 4 -91 9 -75 4 14 7 -41 6 -127 0 -84 -4 -144
-8 -135 -5 14 -7 14 -7 2 -1 -9 4 -21 11 -28 9 -9 9 -12 0 -12 -8 0 -12 -13
-10 -34 1 -19 6 -32 10 -30 4 3 8 2 8 -3 0 -4 3 -41 6 -80 4 -47 3 -73 -4 -73
-6 0 -8 -17 -5 -42 3 -33 2 -40 -7 -28 -8 12 -9 8 -4 -15 4 -16 11 -31 16 -33
11 -5 10 -42 -2 -42 -5 0 -10 -10 -10 -22 0 -19 2 -20 10 -8 7 11 10 7 10 -17
0 -18 -4 -33 -10 -33 -5 0 -10 -16 -10 -35 0 -19 5 -35 10 -35 6 0 10 -31 10
-77 -1 -43 2 -116 5 -163 9 -108 9 -159 0 -237 -5 -42 -4 -63 3 -63 10 0 11
-97 10 -555 -1 -280 1 -448 6 -524 3 -64 1 -92 -11 -114 -12 -24 -13 -34 -3
-52 6 -12 11 -53 11 -91 0 -38 -1 -76 -1 -84 0 -8 2 -107 5 -220 5 -236 6
-467 4 -660 -1 -74 -1 -236 0 -360 0 -124 -3 -249 -7 -277 -5 -29 -6 -53 -2
-53 5 0 8 -39 8 -87 -1 -405 3 -548 13 -552 6 -1 3 -12 -7 -22 -15 -17 -16
-27 -6 -84 6 -36 7 -77 4 -93 -4 -15 -5 -110 -1 -212 3 -102 2 -249 -3 -327
-6 -93 -6 -155 1 -179 6 -21 8 -41 5 -45 -5 -9 -6 -120 -1 -154 2 -11 7 -28
12 -39 5 -11 4 -26 -3 -36 -8 -13 -8 -20 0 -28 8 -8 8 -15 0 -25 -8 -10 -8
-17 -1 -24 11 -11 10 -18 -21 -148 -4 -17 -4 -39 0 -50 8 -23 2 -55 -11 -55
-5 0 -9 -4 -9 -10 0 -5 6 -10 14 -10 9 0 15 -19 20 -63 3 -34 10 -83 14 -109
6 -30 5 -49 -1 -51 -10 -3 -11 -85 -9 -467 1 -233 -8 -749 -14 -795 -3 -22 -1
-114 4 -205 5 -90 6 -178 1 -195 -13 -48 -18 -154 -8 -161 5 -3 9 -29 9 -58 0
-67 10 -117 21 -110 8 5 13 -26 11 -65 0 -17 22 -41 37 -41 12 0 8 26 -12 90
-8 25 -10 342 -10 1070 1 569 -3 1065 -8 1101 -5 42 -5 78 2 100 5 19 9 97 8
174 -3 292 0 805 4 813 3 4 1 57 -3 117 -6 64 -6 113 0 119 5 5 5 18 0 31 -13
34 -16 112 -7 215 4 52 4 108 -1 124 -5 19 -3 48 5 80 7 28 10 59 7 70 -8 24
-14 244 -11 396 0 58 0 137 -1 175 -1 39 -4 282 -6 540 -2 259 -4 479 -4 490
-1 11 -2 31 -3 45 -2 41 -2 74 0 100 7 111 -13 1761 -24 1990 -2 36 -3 148 -3
250 0 102 -1 203 -2 225 -1 55 -8 399 -14 760 -2 165 -8 318 -11 340 -4 22 -6
60 -5 85 8 203 -3 709 -25 1155 -6 110 -15 506 -20 905 -4 217 -8 429 -11 470
-7 109 -16 418 -13 470 3 52 2 85 -6 230 -3 58 -6 174 -8 259 l-3 154 31 19
c21 13 39 17 60 12 36 -8 169 -10 320 -5 61 2 142 4 180 4 39 0 124 0 190 1
81 1 127 -3 143 -12 18 -10 23 -10 27 0 4 9 23 13 58 12 28 -1 54 -2 57 -4 20
-9 110 -10 110 -1 0 6 19 11 43 11 31 0 38 -3 27 -10 -12 -8 -11 -10 8 -10 12
0 22 5 22 10 0 6 57 10 150 10 97 0 150 -4 150 -10 0 -7 6 -7 20 0 13 7 236
12 667 15 357 3 693 7 748 10 55 3 337 8 628 11 495 6 527 5 527 -11 0 -12 -6
-16 -19 -12 -12 3 -22 -1 -25 -9 -4 -10 3 -14 24 -14 17 0 29 3 29 8 -7 40 -2
42 89 37 48 -3 159 -2 247 3 102 6 -692 10 -2187 10 l-2348 2 0 -1171z m30
-1269 c0 -5 -4 -10 -10 -10 -5 0 -10 5 -10 10 0 6 5 10 10 10 6 0 10 -4 10
-10z m67 -1482 c-2 -13 -4 -5 -4 17 -1 22 1 32 4 23 2 -10 2 -28 0 -40z m0
-330 c-3 -7 -5 -2 -5 12 0 14 2 19 5 13 2 -7 2 -19 0 -25z m0 -60 c-3 -7 -5
-2 -5 12 0 14 2 19 5 13 2 -7 2 -19 0 -25z"/>
<path d="M4713 14333 c9 -2 23 -2 30 0 6 3 -1 5 -18 5 -16 0 -22 -2 -12 -5z"/>
<path d="M4798 14333 c12 -2 30 -2 40 0 9 3 -1 5 -23 4 -22 0 -30 -2 -17 -4z"/>
<path d="M4938 14333 c7 -3 16 -2 19 1 4 3 -2 6 -13 5 -11 0 -14 -3 -6 -6z"/>
<path d="M5550 14315 c0 -14 4 -25 9 -25 12 0 23 29 15 41 -10 18 -24 9 -24
-16z"/>
<path d="M9854 13873 c6 -419 20 -1049 31 -1363 2 -63 7 -239 11 -390 3 -151
10 -349 14 -440 5 -105 6 -9 4 263 -2 236 -6 432 -9 436 -2 4 -2 246 1 537 3
291 5 589 5 662 1 83 4 130 10 126 6 -4 10 17 9 53 -1 87 28 379 46 453 9 36
18 80 21 98 l5 32 -77 0 -78 0 7 -467z m43 -720 c-2 -16 -4 -5 -4 22 0 28 2
40 4 28 2 -13 2 -35 0 -50z m0 -485 c-3 -8 -6 -5 -6 6 -1 11 2 17 5 13 3 -3 4
-12 1 -19z"/>
<path d="M1218 14283 c7 -3 16 -2 19 1 4 3 -2 6 -13 5 -11 0 -14 -3 -6 -6z"/>
<path d="M1335 13991 c-41 -8 -130 -75 -120 -91 3 -4 -4 -6 -14 -3 -13 3 -21
-2 -26 -16 -3 -12 -11 -21 -16 -21 -5 0 -9 -4 -9 -10 0 -5 7 -10 15 -10 8 0
15 -5 15 -11 0 -7 -9 -9 -22 -6 -29 8 -70 -38 -62 -69 4 -17 -1 -26 -23 -38
-18 -10 -22 -15 -11 -16 14 0 14 -4 5 -25 -7 -14 -20 -25 -29 -25 -10 0 -18
-4 -18 -10 0 -5 6 -10 13 -10 8 0 7 -4 -3 -11 -11 -8 -12 -12 -2 -16 31 -12 6
-40 -31 -34 -4 1 -10 -6 -13 -14 -4 -8 -12 -15 -19 -15 -7 0 -15 -13 -18 -30
-4 -16 -11 -30 -17 -30 -25 0 -66 -69 -57 -94 4 -10 1 -16 -9 -16 -9 0 -14 -6
-11 -13 3 -7 -4 -24 -14 -38 -24 -31 -24 -39 1 -39 29 0 24 -13 -10 -28 -19
-9 -30 -21 -31 -35 0 -12 -3 -16 -6 -9 -7 17 -23 15 -23 -3 0 -9 7 -18 15 -21
17 -7 20 -24 4 -24 -16 0 -42 -30 -44 -50 -1 -10 -7 -26 -15 -35 -7 -9 -14
-41 -14 -73 -1 -31 -5 -62 -11 -69 -5 -7 -16 -19 -23 -28 -9 -10 -10 -20 -4
-28 5 -7 12 -22 15 -34 4 -19 1 -23 -18 -23 -27 0 -38 -31 -29 -82 4 -25 3
-29 -5 -18 -10 14 -15 7 -12 -13 1 -4 -6 -10 -14 -13 -8 -4 -15 -12 -15 -20 0
-8 6 -11 15 -8 24 10 17 -13 -11 -35 -18 -14 -24 -26 -19 -38 6 -17 7 -17 19
-1 9 13 16 14 24 6 8 -8 14 -3 23 18 6 16 15 38 20 49 4 11 11 35 14 53 4 18
13 45 20 59 8 15 12 30 9 35 -3 4 -1 8 5 8 9 0 30 39 45 83 3 9 9 17 13 17 14
0 93 -108 105 -142 6 -18 20 -46 30 -63 10 -16 21 -38 24 -47 4 -10 10 -18 15
-18 5 0 9 -10 9 -23 0 -13 12 -38 28 -57 33 -42 152 -180 169 -198 7 -7 13
-17 13 -22 0 -5 14 -24 30 -42 17 -18 33 -43 36 -55 10 -40 60 -40 66 0 2 12
-6 40 -17 62 -25 50 -84 135 -93 135 -4 0 -27 27 -52 60 -24 33 -48 60 -52 60
-5 0 -8 6 -8 13 0 8 -11 23 -23 35 -13 13 -37 49 -53 82 -16 33 -32 60 -36 60
-3 0 -9 13 -13 29 -9 42 -72 139 -117 180 -27 23 -22 41 10 41 33 0 133 28
146 41 6 5 19 9 30 9 10 0 49 17 85 37 70 40 145 81 199 109 17 10 32 21 32
26 0 4 6 8 14 8 17 0 135 147 143 180 4 14 12 30 19 37 12 12 34 124 34 173 0
14 0 53 0 87 1 63 -16 151 -31 168 -5 5 -9 17 -9 26 0 30 -67 77 -115 81 -23
1 -50 1 -60 -1z m77 -66 c21 -4 33 -18 53 -60 14 -31 25 -74 25 -98 0 -74 11
-114 34 -126 20 -11 19 -11 -5 -6 -29 5 -39 -12 -39 -68 0 -40 -34 -129 -61
-163 -30 -37 -122 -124 -130 -124 -4 0 -29 -18 -55 -40 -27 -22 -52 -40 -57
-40 -4 0 -27 -9 -50 -21 -23 -11 -62 -27 -87 -36 -25 -8 -47 -19 -51 -24 -3
-5 -18 -10 -35 -12 -16 -2 -39 -9 -51 -15 -25 -14 -53 -16 -53 -4 0 4 7 18 16
30 8 12 12 22 9 22 -3 0 3 17 13 38 34 62 62 128 62 141 0 7 5 22 12 34 13 24
12 21 30 92 7 28 21 61 30 76 10 14 21 40 24 58 4 18 13 35 20 38 9 3 12 14 8
27 -4 16 3 29 25 49 33 29 39 55 19 75 -12 12 -10 13 47 16 12 1 22 12 28 32
7 25 18 34 48 44 21 7 39 16 39 20 0 4 16 15 35 24 19 9 35 21 35 26 0 4 8 7
18 5 9 -2 29 -6 44 -10z m-522 -575 c0 -5 -5 -10 -11 -10 -5 0 -7 5 -4 10 3 6
8 10 11 10 2 0 4 -4 4 -10z m-60 -130 c0 -5 -4 -10 -10 -10 -5 0 -10 5 -10 10
0 6 5 10 10 10 6 0 10 -4 10 -10z"/>
<path d="M3958 13754 c-4 -3 -14 -7 -24 -8 -20 -3 -32 -26 -14 -26 6 0 9 -4 6
-9 -3 -5 3 -11 14 -14 20 -5 28 -41 12 -51 -11 -6 -14 -66 -4 -66 25 1 72 70
72 107 0 46 -40 90 -62 67z"/>
<path d="M8757 13708 c-2 -7 3 -18 12 -25 19 -15 51 -17 51 -3 0 6 -9 10 -20
10 -11 0 -20 7 -20 15 0 18 -17 20 -23 3z"/>
<path d="M2589 13483 c-36 -40 -55 -73 -62 -110 -3 -18 -14 -41 -24 -53 -10
-11 -17 -24 -16 -28 1 -4 -3 -12 -8 -18 -5 -6 -27 -60 -49 -120 -65 -179 -87
-237 -104 -269 -9 -16 -16 -35 -16 -41 0 -5 -16 -26 -36 -45 -48 -46 -58 -67
-43 -85 18 -22 39 -17 73 19 41 42 94 60 155 52 39 -5 51 -12 66 -37 45 -77
36 -133 -32 -206 -51 -55 -141 -81 -212 -61 -77 20 -151 109 -111 134 10 6 14
45 5 45 -22 0 -74 -32 -80 -49 -9 -30 29 -105 72 -140 41 -33 111 -61 155 -61
40 0 118 21 118 31 0 5 8 9 18 9 23 0 102 60 102 77 0 7 4 13 8 13 19 0 44 76
43 132 0 65 -10 89 -53 129 -33 29 -69 41 -136 42 -32 1 -41 5 -37 16 3 7 10
33 16 57 6 25 15 47 20 50 5 3 9 14 9 25 0 11 11 42 25 69 14 27 26 62 27 77
1 16 5 33 10 39 15 20 66 152 61 157 -4 5 34 65 48 77 4 3 14 22 22 43 9 20
21 37 26 37 6 0 11 5 11 10 0 21 -47 9 -71 -17z"/>
<path d="M4361 13056 c-9 -11 -9 -15 1 -19 9 -3 7 -9 -7 -20 -11 -8 -17 -18
-13 -22 4 -4 -4 -25 -18 -46 -13 -21 -24 -43 -24 -48 0 -6 -8 -25 -18 -43 -21
-38 -53 -128 -46 -128 3 0 -4 -12 -15 -26 -12 -15 -21 -34 -21 -43 0 -9 -11
-38 -25 -66 -13 -27 -25 -56 -25 -62 0 -27 -63 -48 -140 -47 -64 2 -82 6 -115
29 -57 38 -124 119 -111 132 3 4 -1 17 -10 30 -11 17 -15 44 -13 91 2 65 -11
112 -31 112 -6 0 -10 -5 -10 -11 0 -6 -11 -20 -25 -31 -25 -20 -35 -36 -79
-125 -14 -29 -30 -53 -36 -53 -5 0 -10 -7 -10 -16 0 -8 -11 -30 -24 -47 -13
-18 -30 -47 -39 -65 -16 -32 -15 -33 8 -44 38 -17 57 3 125 137 11 22 28 51
39 65 l19 25 7 -30 c7 -35 74 -175 84 -175 3 0 18 -11 34 -25 15 -14 48 -35
74 -46 41 -18 61 -20 135 -15 73 5 89 3 96 -10 12 -22 44 -14 59 16 21 42 50
112 68 170 10 30 31 82 47 115 15 33 28 65 28 72 0 7 15 45 34 85 18 40 38 87
44 105 19 59 -15 118 -47 79z"/>
<path d="M1520 12960 c0 -7 -8 -10 -20 -7 -15 4 -33 -7 -66 -41 -42 -44 -75
-91 -74 -109 0 -5 -7 -29 -16 -55 -15 -48 -11 -84 17 -140 5 -10 9 -26 9 -36
0 -21 73 -102 109 -121 44 -24 199 6 239 46 8 8 26 20 40 28 41 22 148 136
159 171 20 59 -9 189 -43 189 -5 0 -11 -36 -14 -80 -6 -93 -14 -108 -103 -190
-147 -136 -262 -136 -331 -3 -39 78 7 221 89 278 36 25 62 57 53 65 -13 11
-48 14 -48 5z"/>
<path d="M3348 12916 c-41 -22 -100 -28 -268 -27 -85 0 -160 -3 -166 -7 -17
-11 -22 -35 -12 -54 6 -13 5 -16 -4 -13 -8 3 -31 -23 -58 -67 -41 -66 -45 -79
-44 -133 0 -71 16 -106 79 -168 35 -35 55 -47 88 -52 80 -11 187 9 397 75 68
22 119 54 102 63 -10 6 -180 -28 -272 -54 -70 -20 -164 -28 -204 -18 -48 13
-112 71 -126 115 -10 28 -8 43 6 80 l18 47 20 -25 c12 -14 31 -31 44 -37 43
-23 211 2 314 46 31 13 36 19 26 30 -13 17 -59 13 -168 -14 -36 -9 -83 -17
-105 -18 -42 -2 -105 20 -105 37 0 5 -4 6 -10 3 -5 -3 -10 -1 -10 4 0 6 5 11
10 11 6 0 10 10 10 23 1 12 9 32 19 44 18 22 22 22 192 17 l174 -6 55 42 c30
22 55 46 55 53 0 18 -26 19 -57 3z"/>
<path d="M4825 12899 c-10 -15 3 -25 16 -12 7 7 7 13 1 17 -6 3 -14 1 -17 -5z"/>
<path d="M539 12470 c-16 -15 -20 -23 -11 -26 17 -8 15 -24 -3 -24 -19 0 -19
-14 -1 -29 23 -19 68 24 64 62 -4 38 -18 43 -49 17z"/>
<path d="M1323 12003 c-32 -16 -93 -73 -93 -86 0 -4 -13 -27 -28 -50 -48 -70
-85 -150 -161 -342 -5 -11 -16 -37 -25 -58 -9 -21 -16 -42 -16 -48 0 -5 -9
-29 -20 -51 -11 -23 -20 -50 -20 -59 0 -10 -4 -20 -9 -23 -4 -3 -14 -27 -21
-53 -7 -27 -17 -52 -21 -58 -5 -5 -9 -19 -9 -31 0 -13 -4 -26 -10 -29 -5 -3
-10 -17 -10 -30 0 -13 -8 -39 -19 -57 -10 -18 -29 -71 -42 -118 -13 -47 -33
-104 -46 -128 -22 -43 -22 -52 3 -108 20 -45 38 -57 78 -50 37 7 74 40 57 51
-6 3 -19 4 -29 1 -9 -3 -22 -2 -28 2 -13 9 -26 80 -15 86 4 3 18 40 31 83 12
43 26 82 31 88 5 5 9 21 9 36 0 15 4 30 9 33 4 3 14 27 21 53 7 27 16 53 20
58 4 6 22 52 39 103 17 52 40 112 51 135 10 23 28 71 40 107 12 36 28 80 36
98 7 17 21 49 30 70 60 140 168 312 195 312 15 0 48 -87 58 -150 20 -135 27
-292 17 -435 -12 -188 -23 -275 -35 -275 -3 0 -5 -26 -5 -57 1 -32 -2 -84 -6
-115 -9 -64 -5 -94 15 -102 24 -9 44 19 49 69 8 71 26 190 38 255 6 30 11 154
13 275 4 360 -17 506 -86 591 -15 19 -57 22 -86 7z"/>
<path d="M3760 11930 c-13 -9 -13 -11 0 -20 24 -16 40 -12 40 10 0 22 -16 26
-40 10z"/>
<path d="M3815 11810 c-3 -5 -15 -10 -27 -10 -17 0 -19 -5 -15 -27 3 -15 0
-38 -6 -52 -5 -15 -9 -36 -8 -49 1 -12 -9 -36 -24 -54 -26 -30 -45 -67 -51
-97 -1 -8 -7 -17 -12 -20 -5 -3 -18 -33 -29 -66 -12 -33 -33 -93 -47 -133 -14
-41 -26 -85 -26 -99 0 -13 -5 -33 -11 -44 -27 -51 -48 -241 -29 -264 18 -22
45 -18 59 9 15 28 78 49 118 40 15 -4 47 -18 69 -31 43 -24 68 -23 78 4 22 55
-149 110 -246 79 -24 -7 -28 -5 -28 12 0 12 5 24 10 27 6 3 10 19 10 35 0 16
5 41 11 57 6 15 22 66 35 113 55 192 66 222 130 343 9 15 12 32 9 37 -8 12 47
-11 56 -24 4 -5 12 -5 19 -1 9 5 10 20 5 49 -4 22 -8 64 -9 91 -2 69 -22 106
-41 75z"/>
<path d="M3580 11700 c0 -6 -9 -10 -19 -10 -36 0 -37 -84 0 -95 26 -9 89 24
102 52 8 19 7 27 -5 39 -17 17 -78 28 -78 14z"/>
<path d="M9911 11443 c1 -10 5 -31 9 -48 7 -27 8 -25 9 18 0 26 -3 47 -9 47
-5 0 -9 -8 -9 -17z"/>
<path d="M4240 11360 c-100 -18 -175 -70 -265 -184 -35 -44 -45 -72 -50 -140
-4 -60 8 -96 35 -103 11 -3 17 -9 15 -14 -3 -4 3 -12 13 -18 27 -14 148 -41
187 -41 19 0 44 -4 57 -9 27 -9 82 10 91 32 5 14 -37 24 -123 31 -55 4 -126
19 -152 32 -15 8 -34 11 -43 8 -11 -5 -16 -2 -14 7 2 8 0 24 -5 36 -10 30 8
91 45 155 22 39 48 65 95 96 102 69 138 72 239 25 73 -33 86 -28 38 15 -24 21
-43 43 -43 49 0 15 -33 33 -57 32 -10 -1 -38 -5 -63 -9z"/>
<path d="M9921 11273 c0 -30 3 -53 9 -53 11 0 11 31 0 75 -7 26 -8 22 -9 -22z"/>
<path d="M3835 11301 c-7 -12 12 -24 25 -16 11 7 4 25 -10 25 -5 0 -11 -4 -15
-9z"/>
<path d="M6239 11303 c-1 -5 -1 -11 0 -15 0 -4 -13 -5 -29 -1 -17 3 -36 1 -43
-5 -7 -6 -31 -12 -52 -13 -22 -1 -45 -6 -51 -10 -24 -19 -156 -42 -244 -43
-99 -1 -160 7 -197 26 -35 18 -152 5 -213 -24 l-52 -25 -26 23 c-30 29 -92 34
-88 8 1 -9 12 -24 25 -33 22 -17 39 -71 22 -71 -5 0 -11 -10 -15 -23 -3 -13
-17 -41 -32 -63 -15 -21 -42 -68 -61 -104 -19 -36 -46 -77 -59 -91 -32 -33
-44 -96 -20 -105 23 -9 62 20 70 51 4 15 29 57 56 93 28 36 50 69 50 74 0 6 9
23 20 39 12 15 26 43 32 61 14 39 51 82 94 108 39 25 92 25 244 4 110 -15 223
-14 334 3 27 4 37 3 32 -5 -11 -18 -118 -72 -143 -72 -13 0 -23 -4 -23 -8 0
-4 -21 -13 -47 -21 -27 -7 -70 -23 -98 -36 -27 -13 -68 -29 -90 -36 -22 -7
-46 -17 -52 -22 -8 -6 -18 -5 -25 1 -7 6 -43 18 -79 28 -64 17 -67 17 -91 -2
-72 -53 -44 -82 87 -91 80 -6 86 -8 109 -37 13 -17 37 -46 55 -65 17 -18 31
-37 31 -42 0 -6 5 -15 10 -22 6 -7 19 -24 30 -39 45 -59 180 -99 211 -62 23
28 -1 49 -57 49 -46 1 -53 4 -94 49 -25 27 -47 54 -50 61 -3 7 -22 32 -42 56
-21 24 -42 49 -48 56 -14 18 55 55 165 89 49 15 111 38 138 51 26 13 57 26 68
28 12 2 26 8 33 13 6 5 22 13 36 17 29 9 125 81 158 119 12 14 22 37 22 51 0
14 4 25 9 25 5 0 7 -9 4 -20 -3 -11 0 -20 6 -20 6 0 11 11 11 25 0 18 -5 25
-20 25 -11 0 -21 -3 -21 -7z"/>
<path d="M4835 11265 c-27 -8 -60 -11 -72 -8 -13 3 -23 1 -23 -4 0 -6 -10 -22
-22 -36 -43 -50 -65 -82 -72 -104 -4 -13 -12 -23 -17 -23 -5 0 -9 -7 -9 -15 0
-9 -25 -45 -55 -80 -57 -67 -66 -91 -40 -101 17 -7 75 14 75 26 0 4 18 28 40
52 l40 46 80 0 c89 1 120 7 120 26 0 17 -74 39 -122 37 -30 -1 -38 3 -38 17 0
26 61 89 103 107 47 19 73 8 82 -36 12 -54 -5 -245 -25 -285 -21 -39 -17 -64
9 -64 53 0 81 97 81 277 0 106 -7 138 -35 166 -19 20 -33 20 -100 2z"/>
<path d="M2188 11245 c-25 -7 -70 -26 -100 -43 -72 -41 -91 -43 -126 -9 -38
36 -101 47 -137 23 -22 -14 -25 -15 -25 -1 0 8 -9 15 -20 15 -13 0 -20 -7 -20
-19 0 -22 11 -26 85 -36 55 -8 73 -18 86 -51 12 -34 -10 -139 -36 -166 -52
-56 -54 -98 -3 -84 40 11 85 85 103 172 9 43 21 82 28 86 7 5 35 15 62 24 176
56 263 58 301 6 17 -23 17 -91 -1 -108 -28 -28 -75 -102 -75 -118 0 -21 49
-21 56 -1 4 8 11 15 18 15 6 0 26 26 44 59 53 96 41 184 -32 227 -38 22 -140
27 -208 9z"/>
<path d="M2743 11243 c-24 -2 -43 -8 -43 -13 0 -5 -13 -7 -29 -4 -16 4 -32 1
-35 -5 -4 -6 -20 -11 -37 -11 -16 0 -29 -4 -29 -10 0 -5 -9 -10 -20 -10 -22 0
-25 -7 -11 -29 6 -9 17 -12 32 -7 101 30 257 39 284 16 37 -31 7 -158 -67
-283 -17 -29 -20 -42 -12 -55 17 -26 36 -20 61 18 12 19 26 40 30 45 12 16 33
74 54 150 19 71 18 116 -5 146 -18 25 -83 59 -109 57 -12 -1 -41 -3 -64 -5z"/>
<path d="M3210 11210 c10 -7 12 -12 4 -17 -14 -10 -64 -135 -64 -160 0 -11
-14 -45 -31 -77 -17 -31 -28 -63 -25 -71 7 -20 39 -19 59 3 25 27 87 228 87
281 0 41 -3 47 -22 48 -18 2 -20 0 -8 -7z"/>
<path d="M3840 11140 c0 -13 5 -20 13 -17 6 2 12 10 12 17 0 7 -6 15 -12 18
-8 2 -13 -5 -13 -18z"/>
<path d="M1111 11139 c-63 -25 -88 -42 -104 -68 -10 -17 -14 -32 -10 -34 5 -3
33 4 63 14 67 23 100 23 165 4 40 -13 55 -13 73 -4 12 7 22 16 22 21 0 5 9 18
20 30 28 30 25 42 -7 34 -68 -17 -85 -17 -129 -2 -54 18 -60 18 -93 5z"/>
<path d="M9920 11125 c0 -8 5 -15 10 -15 6 0 10 7 10 15 0 8 -4 15 -10 15 -5
0 -10 -7 -10 -15z"/>
<path d="M9925 11058 c3 -7 7 -83 9 -168 6 -205 6 -199 14 -178 9 23 -9 358
-19 358 -5 0 -6 -6 -4 -12z"/>
<path d="M9941 10674 c0 -11 3 -14 6 -6 3 7 2 16 -1 19 -3 4 -6 -2 -5 -13z"/>
<path d="M9940 10560 c0 -5 5 -10 11 -10 5 0 7 5 4 10 -3 6 -8 10 -11 10 -2 0
-4 -4 -4 -10z"/>
<path d="M9954 10360 c0 -96 2 -136 3 -87 2 48 2 126 0 175 -1 48 -3 8 -3 -88z"/>
<path d="M1525 10258 c-44 -16 -129 -47 -188 -67 -60 -21 -112 -42 -115 -47
-4 -5 -14 -11 -22 -13 -48 -13 -125 -43 -138 -53 -8 -7 -18 -12 -21 -12 -13 3
-77 -32 -92 -51 -10 -11 -22 -44 -29 -75 -33 -151 -52 -226 -61 -236 -6 -8 -6
-13 1 -16 8 -2 8 -17 1 -50 -6 -26 -13 -68 -16 -95 -14 -132 -18 -158 -25
-163 -4 -3 -10 -31 -14 -63 -3 -32 -8 -63 -12 -68 -8 -14 5 -46 21 -53 26 -10
44 5 54 43 12 44 51 288 57 356 2 27 9 52 14 55 5 3 52 12 102 19 129 17 138
20 138 35 0 7 -9 21 -20 31 -19 18 -24 18 -108 2 -48 -10 -90 -17 -95 -17 -4
0 -5 14 -2 32 3 18 7 62 9 99 4 80 27 126 76 150 79 37 128 58 188 78 34 12
70 25 80 30 9 4 42 16 72 26 30 9 74 26 98 37 24 10 83 29 130 41 80 21 87 25
87 47 0 23 -4 25 -45 27 -29 1 -73 -9 -125 -29z"/>
<path d="M4082 10250 c-11 -12 -23 -34 -27 -48 -4 -15 -12 -34 -20 -42 -19
-22 -85 -150 -78 -150 4 0 2 -5 -4 -11 -11 -11 -6 -49 6 -49 6 1 92 118 116
160 30 53 55 108 57 131 4 31 -24 36 -50 9z"/>
<path d="M9963 10085 c0 -33 2 -45 4 -27 2 18 2 45 0 60 -2 15 -4 0 -4 -33z"/>
<path d="M3210 10094 c-53 -19 -140 -65 -168 -89 -36 -30 -96 -117 -107 -155
-4 -14 -11 -30 -16 -35 -4 -6 -11 -35 -14 -65 -4 -30 -11 -59 -16 -64 -5 -6
-9 -36 -9 -67 0 -56 0 -57 -32 -63 -56 -11 -118 -38 -118 -51 0 -20 38 -25 75
-9 65 27 66 26 60 -88 -7 -125 -11 -158 -32 -223 -19 -61 -63 -155 -83 -175
-3 -3 -10 -14 -16 -25 -14 -27 -71 -55 -111 -55 -35 0 -52 20 -54 62 -1 28
-31 81 -44 79 -6 -1 -9 -21 -8 -45 5 -99 66 -164 140 -150 90 16 135 59 194
184 44 94 64 191 75 365 3 58 11 103 18 107 6 4 31 10 56 13 103 13 230 47
230 61 0 20 -42 27 -102 16 -29 -6 -60 -10 -68 -10 -8 1 -39 -2 -69 -7 l-54
-7 6 58 c9 81 14 103 31 149 29 78 57 126 80 137 13 5 30 21 37 34 7 13 15 24
18 24 4 0 22 14 41 32 28 26 45 33 85 36 49 3 63 7 53 17 -8 8 -62 14 -78 9z"/>
<path d="M9961 9861 c4 -112 19 -127 18 -18 -1 48 -5 90 -11 93 -6 4 -8 -25
-7 -75z"/>
<path d="M1787 9816 c-21 -14 -44 -26 -52 -26 -8 0 -45 -14 -82 -32 -79 -37
-144 -98 -196 -184 -47 -78 -50 -129 -10 -181 26 -34 29 -35 78 -31 33 3 65
15 95 34 60 39 123 86 136 102 8 11 13 5 24 -27 7 -23 19 -41 25 -41 20 0 33
44 28 93 -4 36 -2 52 11 66 23 26 17 63 -10 67 -17 3 -26 -5 -40 -34 -26 -55
-107 -131 -179 -168 -86 -44 -116 -47 -133 -11 -12 25 -11 33 19 93 44 90 76
120 211 188 102 52 121 58 158 53 24 -3 47 -13 55 -24 11 -14 16 -15 26 -6 16
16 -13 60 -49 74 -57 22 -76 21 -115 -5z"/>
<path d="M2247 9808 c-7 -4 -27 -8 -46 -8 -32 0 -111 -36 -111 -51 0 -8 38 -4
125 12 58 10 147 10 165 -1 21 -13 2 -28 -65 -50 -36 -12 -65 -25 -65 -28 0
-4 -20 -8 -45 -9 l-45 -2 20 21 c26 29 25 48 -2 48 -23 -1 -51 -31 -102 -111
-13 -20 -30 -68 -39 -105 -8 -38 -20 -83 -27 -100 -17 -39 -8 -64 23 -64 19 0
26 8 36 40 6 22 13 40 15 40 1 0 26 -11 55 -25 41 -20 73 -27 149 -31 202 -11
342 0 318 24 -8 7 -39 11 -266 31 -128 11 -213 37 -225 69 -8 23 13 86 34 99
26 16 157 60 206 68 48 9 85 40 85 71 0 28 -35 63 -64 65 -62 5 -119 3 -129
-3z"/>
<path d="M9972 9720 c0 -14 2 -19 5 -12 2 6 2 18 0 25 -3 6 -5 1 -5 -13z"/>
<path d="M3591 9690 c-18 -4 -45 -18 -60 -29 -14 -12 -38 -27 -53 -34 -16 -6
-28 -19 -28 -28 0 -10 -12 -30 -27 -46 -16 -15 -46 -54 -67 -86 -35 -51 -37
-60 -24 -73 12 -12 20 -13 44 -4 49 19 121 97 129 141 9 44 17 59 46 84 25 20
40 25 80 24 27 -1 49 -6 49 -10 0 -4 -24 -15 -52 -25 -56 -18 -107 -51 -107
-70 -1 -8 16 -7 57 2 31 8 69 14 84 14 l27 0 0 -80 c0 -44 -5 -82 -10 -85 -15
-10 -10 -52 7 -59 35 -13 50 10 63 96 7 46 10 95 6 110 -6 23 -2 28 42 49 l48
24 -46 3 c-41 3 -47 6 -62 38 -24 50 -67 63 -146 44z"/>
<path d="M4284 9646 c-23 -7 -58 -26 -78 -41 l-36 -27 -11 25 c-17 38 -58 51
-134 42 -36 -3 -65 -11 -65 -16 0 -6 12 -9 28 -8 56 4 82 -2 102 -23 28 -29
22 -78 -16 -154 -30 -59 -25 -78 16 -72 23 3 32 13 50 58 34 81 113 165 166
174 83 16 116 -12 139 -118 15 -75 10 -111 -21 -149 -26 -31 -29 -43 -13 -52
18 -12 56 4 73 30 35 53 39 124 12 230 -11 42 -45 83 -86 105 -25 13 -75 12
-126 -4z"/>
<path d="M9970 9640 c0 -19 3 -21 12 -12 9 9 9 15 0 24 -9 9 -12 7 -12 -12z"/>
<path d="M9970 9551 c0 -6 5 -13 10 -16 6 -3 10 1 10 9 0 9 -4 16 -10 16 -5 0
-10 -4 -10 -9z"/>
<path d="M81 9524 c0 -11 3 -14 6 -6 3 7 2 16 -1 19 -3 4 -6 -2 -5 -13z"/>
<path d="M9984 9385 c0 -49 1 -71 3 -48 2 23 2 64 0 90 -2 26 -3 8 -3 -42z"/>
<path d="M231 9334 c0 -11 3 -14 6 -6 3 7 2 16 -1 19 -3 4 -6 -2 -5 -13z"/>
<path d="M9985 9215 c10 -65 18 -73 13 -13 -2 26 -8 51 -12 55 -4 5 -5 -14 -1
-42z"/>
<path d="M9993 9100 c0 -25 2 -35 4 -22 2 12 2 32 0 45 -2 12 -4 2 -4 -23z"/>
<path d="M3961 9025 c1 -43 6 -75 11 -75 6 0 8 -11 4 -24 -4 -15 1 -32 14 -48
11 -14 16 -28 13 -32 -3 -3 3 -6 15 -6 11 0 24 -4 27 -10 3 -5 22 -10 41 -10
32 0 34 2 34 33 0 37 -50 101 -88 112 -21 6 -23 11 -17 42 3 19 8 40 11 48 4
10 -44 45 -63 45 -1 0 -3 -34 -2 -75z"/>
<path d="M9991 9024 c0 -11 3 -14 6 -6 3 7 2 16 -1 19 -3 4 -6 -2 -5 -13z"/>
<path d="M9993 8950 c0 -25 2 -35 4 -22 2 12 2 32 0 45 -2 12 -4 2 -4 -23z"/>
<path d="M92 8955 c0 -16 2 -22 5 -12 2 9 2 23 0 30 -3 6 -5 -1 -5 -18z"/>
<path d="M9997 8777 c1 -29 2 -87 2 -129 1 -43 5 -78 9 -78 9 0 3 242 -7 252
-3 4 -5 -16 -4 -45z"/>
<path d="M6022 8708 c-6 -24 -13 -83 -17 -132 -3 -48 -8 -93 -12 -100 -4 -6
-8 -15 -9 -21 -32 -169 -92 -345 -118 -345 -5 0 -26 11 -46 25 -27 19 -51 26
-91 27 -120 3 -169 -23 -239 -127 -27 -40 -34 -60 -34 -102 -1 -43 3 -55 27
-77 30 -28 87 -43 114 -30 10 4 23 9 28 9 22 4 63 24 107 54 25 17 50 31 56
31 5 0 1 -25 -9 -57 -11 -31 -19 -60 -19 -64 0 -12 64 -23 68 -11 2 6 17 27
33 48 34 43 36 54 10 54 -17 0 -16 6 14 68 18 37 45 78 59 91 14 14 26 30 26
37 0 7 14 33 30 57 33 50 37 67 15 67 -8 0 -15 -9 -15 -20 0 -11 -4 -20 -10
-20 -5 0 -16 -12 -24 -27 -11 -20 -15 -23 -16 -10 0 9 4 25 9 35 38 79 44 99
62 207 5 33 14 83 20 110 16 83 16 265 0 265 -4 0 -13 -19 -19 -42z m-231
-619 c56 -29 60 -33 54 -57 -7 -27 -57 -82 -75 -82 -6 0 -8 -4 -5 -10 3 -5 -3
-11 -14 -11 -30 -2 -30 -2 -93 -33 -71 -34 -116 -32 -137 5 -23 40 -7 92 44
144 79 81 132 92 226 44z"/>
<path d="M4159 8700 c-9 -5 -34 -12 -57 -14 -22 -3 -61 -13 -86 -21 -26 -9
-50 -14 -55 -11 -8 5 -142 -19 -281 -50 -41 -10 -80 -23 -86 -30 -6 -8 -14
-11 -17 -7 -4 3 -13 1 -21 -6 -9 -8 -21 -8 -38 -2 -19 7 -32 5 -56 -11 -18
-11 -32 -26 -32 -34 0 -21 33 -17 64 7 17 14 24 16 20 6 -9 -26 13 -28 78 -8
70 21 206 48 313 62 39 5 82 14 96 20 28 11 79 3 79 -13 0 -5 -5 -18 -10 -28
-6 -11 -15 -66 -20 -122 -6 -57 -15 -146 -21 -198 -6 -52 -12 -113 -13 -135
-5 -61 -16 -114 -36 -175 -10 -30 -21 -72 -25 -92 -7 -36 -6 -38 19 -38 22 0
30 8 47 48 33 75 46 161 85 562 17 172 23 195 51 204 10 3 102 6 205 8 169 2
188 1 207 -16 17 -16 24 -16 58 -6 50 17 63 28 63 56 0 12 -6 26 -12 31 -7 4
-110 9 -228 9 -119 1 -229 4 -245 8 -17 3 -37 1 -46 -4z"/>
<path d="M111 8564 c0 -11 3 -14 6 -6 3 7 2 16 -1 19 -3 4 -6 -2 -5 -13z"/>
<path d="M1170 8554 c-36 -9 -76 -16 -90 -18 -14 -1 -39 -10 -57 -19 -18 -9
-40 -17 -51 -17 -10 0 -22 -4 -27 -8 -6 -5 -35 -19 -66 -31 -67 -26 -129 -80
-129 -111 0 -55 30 -71 140 -75 58 -2 140 -30 160 -55 3 -4 12 -9 20 -12 23
-8 70 -108 70 -148 -1 -56 -39 -90 -102 -90 -40 0 -188 48 -188 61 0 5 -7 9
-15 9 -23 0 -18 13 16 37 29 20 30 22 12 31 -25 14 -75 -17 -85 -53 -10 -38
42 -89 112 -111 30 -9 73 -22 95 -29 43 -13 78 -13 110 -1 73 28 93 53 102
126 5 41 1 59 -26 116 -31 67 -60 104 -81 104 -5 0 -10 6 -10 13 0 6 -19 19
-43 28 -23 10 -51 20 -62 25 -19 7 -36 9 -118 15 -21 1 -36 7 -34 13 1 6 32
26 67 44 36 18 74 39 86 47 23 15 220 53 294 57 40 3 46 0 58 -24 7 -16 20
-28 29 -28 11 0 13 3 5 13 -5 6 -8 26 -6 43 3 27 -1 32 -35 47 -45 20 -65 20
-151 1z"/>
<path d="M10012 8470 c0 -19 2 -27 5 -17 2 9 2 25 0 35 -3 9 -5 1 -5 -18z"/>
<path d="M1574 8406 c-108 -34 -244 -179 -244 -261 0 -40 30 -84 65 -94 57
-17 186 -6 238 20 26 12 47 27 47 32 0 4 4 6 9 3 11 -7 65 19 81 39 10 13 9
15 -11 15 -13 0 -36 -6 -50 -14 -15 -7 -65 -24 -112 -36 -106 -28 -172 -21
-196 22 -16 27 -16 25 24 100 5 10 13 18 17 18 5 0 8 6 8 13 0 16 73 67 134
93 45 20 86 22 86 4 0 -4 -24 -29 -52 -56 -40 -38 -70 -55 -125 -73 -40 -14
-73 -30 -73 -37 0 -8 8 -10 22 -6 14 3 19 2 14 -6 -9 -14 36 -16 62 -3 9 5 37
19 62 31 65 33 150 118 150 151 0 55 -64 74 -156 45z"/>
<path d="M2105 8386 c-76 -15 -184 -67 -221 -105 -35 -38 -62 -105 -60 -151 4
-77 81 -150 159 -150 59 0 216 55 233 82 5 8 -10 9 -57 4 -195 -21 -205 -20
-238 12 -50 48 -41 100 33 180 16 17 35 32 41 32 6 0 21 9 32 19 15 14 38 21
79 23 76 3 86 -3 78 -53 -4 -21 -3 -39 2 -39 27 1 64 53 64 89 0 19 -57 72
-76 70 -5 -1 -36 -6 -69 -13z"/>
<path d="M10012 8370 c0 -14 2 -19 5 -12 2 6 2 18 0 25 -3 6 -5 1 -5 -13z"/>
<path d="M2544 8288 c-17 -18 -38 -45 -46 -59 -18 -28 -42 -174 -32 -190 3 -6
8 -29 11 -52 6 -59 53 -107 104 -107 38 0 115 34 144 64 9 9 24 21 33 28 21
16 85 95 100 125 7 12 12 30 12 40 0 10 7 31 15 47 18 34 18 33 1 39 -20 8
-66 -30 -66 -54 0 -23 -37 -84 -77 -126 -44 -47 -131 -103 -158 -103 -69 0
-77 189 -14 311 20 38 25 69 11 69 -4 0 -22 -15 -38 -32z"/>
<path d="M3360 8300 c-8 -5 -24 -10 -35 -10 -23 0 -115 -46 -130 -64 -5 -7
-20 -18 -31 -24 -29 -15 -80 -127 -83 -179 -1 -23 4 -52 10 -65 24 -46 29 -58
29 -70 0 -7 17 -24 38 -38 30 -20 48 -25 98 -23 58 1 115 20 129 44 12 18 -1
21 -59 10 -69 -13 -106 -1 -140 43 -46 61 -43 135 9 212 29 43 44 56 80 73 17
7 39 18 50 24 13 7 20 6 23 -2 2 -6 8 -11 13 -11 4 0 6 7 2 16 -5 12 -1 15 13
11 62 -18 82 -18 92 -1 9 17 11 17 27 0 13 -13 20 -14 31 -5 22 18 17 48 -8
53 -55 11 -144 14 -158 6z"/>
<path d="M3688 8303 c-10 -3 -18 -10 -18 -18 0 -7 -11 -16 -25 -19 -14 -4 -32
-17 -41 -31 -13 -21 -14 -30 -3 -62 6 -21 26 -56 44 -78 55 -69 88 -140 80
-172 -12 -51 -39 -66 -103 -59 -49 6 -97 -4 -82 -17 54 -42 66 -47 110 -47 42
0 52 5 90 41 42 41 42 42 38 100 -4 51 -11 68 -57 134 -28 41 -59 92 -68 112
l-15 38 41 37 c41 36 43 48 9 41z"/>
<path d="M6565 8294 c-22 -7 -49 -14 -60 -14 -11 0 -30 -7 -41 -15 -12 -8 -24
-11 -28 -8 -6 6 -42 -7 -76 -28 -8 -5 -23 -12 -33 -16 -15 -5 -18 -12 -13 -37
5 -23 4 -28 -5 -19 -9 9 -19 7 -41 -8 -15 -11 -26 -24 -23 -29 2 -4 -3 -18
-14 -31 -16 -22 -43 -121 -43 -159 0 -86 6 -106 39 -137 47 -45 89 -50 176
-24 39 11 82 29 96 38 14 10 43 26 64 36 20 11 37 23 37 29 0 5 9 6 20 3 11
-3 20 -3 20 2 0 4 31 32 69 61 57 43 119 118 127 152 0 3 4 17 8 33 21 74 -34
162 -107 171 -113 14 -134 14 -172 0z m60 -51 c-47 -11 -28 -18 48 -17 112 1
119 -3 112 -73 -9 -100 -78 -175 -230 -251 -16 -8 -37 -20 -45 -26 -34 -26
-137 -60 -183 -60 -70 0 -89 26 -83 114 5 74 30 162 51 183 8 8 11 17 8 21 -4
3 1 6 10 6 9 0 28 15 42 34 21 28 37 36 83 46 31 6 73 14 92 18 39 8 126 12
95 5z"/>
<path d="M5029 8242 c-24 -8 -55 -22 -69 -31 -14 -9 -38 -23 -54 -31 -40 -20
-114 -93 -161 -159 -64 -89 -61 -204 6 -249 42 -29 90 -26 169 12 53 25 74 39
195 135 31 24 57 42 59 40 3 -2 1 -22 -3 -44 -3 -22 -5 -68 -3 -103 4 -61 5
-63 30 -60 18 2 28 11 33 30 4 16 3 30 -2 33 -5 3 -6 25 -4 48 21 185 29 239
42 285 19 70 13 86 -31 78 -21 -4 -37 -2 -41 4 -4 6 -13 9 -20 6 -8 -3 -19 1
-25 9 -14 17 -64 15 -121 -3z m144 -49 c-3 -7 2 -13 11 -13 32 0 17 -65 -35
-145 -31 -47 -171 -175 -192 -175 -7 0 -35 -11 -61 -25 -48 -26 -90 -31 -115
-16 -27 17 -5 167 28 191 4 3 17 20 30 38 13 18 40 44 60 58 20 13 53 35 74
49 21 14 57 28 80 32 23 3 51 9 62 13 30 11 63 7 58 -7z"/>
<path d="M6026 8245 c-3 -8 -1 -15 4 -15 6 0 10 7 10 15 0 8 -2 15 -4 15 -2 0
-6 -7 -10 -15z"/>
<path d="M4529 8215 c-20 -7 -51 -21 -70 -31 -47 -24 -87 -27 -132 -9 -54 22
-61 20 -93 -27 -16 -24 -32 -45 -35 -48 -13 -10 -20 -68 -10 -75 6 -3 11 -39
11 -81 0 -66 2 -74 19 -74 26 0 57 45 72 103 6 26 15 47 19 47 4 0 12 19 18
43 l11 42 53 2 c51 1 140 33 153 53 3 6 21 10 38 10 42 0 63 13 45 26 -34 26
-63 31 -99 19z m-239 -90 c0 -15 -34 -85 -41 -85 -13 0 -11 12 6 54 8 20 20
36 25 36 6 0 10 -2 10 -5z"/>
<path d="M10020 7974 c0 -236 11 -473 21 -447 4 11 6 38 4 59 -2 22 -6 156 -9
298 -3 142 -8 261 -11 264 -3 3 -5 -75 -5 -174z"/>
<path d="M3197 8078 c-14 -8 -16 -13 -6 -24 13 -16 34 -19 24 -4 -3 6 -2 10 3
10 6 0 13 -7 16 -15 10 -28 136 0 136 30 0 15 -148 18 -173 3z"/>
<path d="M10035 7448 c6 -70 19 -624 17 -755 0 -64 3 -103 9 -103 6 0 7 9 4
21 -4 12 -3 24 2 28 5 3 6 76 2 166 -8 199 -19 516 -21 613 0 40 -5 75 -10 78
-4 3 -6 -19 -3 -48z"/>
<path d="M8251 7371 c-55 -54 -92 -135 -98 -211 -5 -58 -2 -73 22 -120 32 -63
86 -120 134 -139 32 -14 33 -15 26 -58 -10 -66 -12 -74 -30 -123 -27 -76 -44
-134 -41 -138 4 -3 -31 -90 -56 -139 -8 -15 -8 -30 -2 -44 10 -22 10 -22 41 7
33 30 107 193 119 262 6 33 16 64 40 127 8 23 11 32 13 44 0 4 27 11 58 15 31
4 61 10 67 15 10 7 45 18 114 36 12 4 22 11 22 17 0 6 -38 7 -111 2 l-112 -7
7 29 c4 16 12 31 17 32 5 2 9 8 9 14 0 17 52 131 70 153 9 11 22 34 30 50 25
50 55 92 95 129 20 19 35 41 33 48 -3 7 2 18 11 25 14 11 14 12 -5 13 -12 0
-36 -16 -55 -35 -19 -19 -39 -35 -45 -35 -23 0 -134 -156 -137 -192 -1 -10 -5
-18 -9 -18 -4 0 -28 -40 -53 -90 -25 -49 -49 -90 -53 -90 -20 0 -94 65 -122
108 -29 42 -31 53 -27 104 4 49 12 70 46 134 3 7 18 27 34 47 51 64 8 88 -52
28z"/>
<path d="M1300 7380 c0 -5 -6 -7 -14 -4 -31 12 -79 -174 -75 -286 3 -60 -11
-258 -20 -289 -6 -19 -8 -38 -5 -43 3 -5 -6 -27 -20 -48 -14 -22 -26 -51 -26
-65 0 -21 5 -25 28 -25 24 0 31 8 56 61 31 68 59 261 50 346 -5 49 8 187 25
258 23 100 23 105 12 105 -6 0 -11 -4 -11 -10z"/>
<path d="M7613 7308 c-56 -64 -57 -145 -5 -338 22 -81 36 -149 32 -155 -5 -5
-31 -23 -58 -40 -27 -16 -54 -39 -60 -50 -38 -73 -41 -86 -30 -113 6 -15 10
-32 9 -38 0 -6 17 -23 39 -38 34 -22 51 -27 98 -25 51 2 61 6 96 41 l39 38 -5
71 c-3 39 -11 76 -17 82 -21 21 -11 62 25 107 20 25 39 47 42 50 16 12 42 109
42 155 0 53 -18 123 -44 173 -9 17 -13 37 -10 46 9 23 -34 43 -107 50 -59 6
-67 4 -86 -16z m118 -70 c51 -38 68 -80 71 -166 1 -69 -2 -82 -29 -127 -22
-38 -35 -50 -54 -50 -13 0 -24 5 -25 10 0 6 -3 17 -7 25 -5 15 -11 42 -23 105
-3 17 -11 55 -19 85 -16 68 -16 89 -3 118 15 28 50 29 89 0z m24 -368 c-3 -5
-11 -10 -16 -10 -6 0 -7 5 -4 10 3 6 11 10 16 10 6 0 7 -4 4 -10z m-67 -155
c26 -99 3 -149 -66 -143 -31 3 -40 9 -55 39 -22 47 -11 82 32 97 17 6 31 18
31 26 0 14 14 24 35 25 6 1 16 -19 23 -44z"/>
<path d="M1930 7254 c-32 -14 -101 -18 -196 -12 -51 3 -88 -18 -107 -63 -25
-59 -38 -178 -28 -254 13 -87 43 -120 123 -136 73 -15 93 -39 85 -102 -11 -77
-74 -98 -163 -53 -53 27 -77 24 -72 -7 5 -37 81 -79 151 -84 77 -5 103 8 134
66 61 116 6 219 -131 248 -50 10 -74 49 -75 119 -1 64 18 167 32 176 11 7 192
21 267 21 25 0 51 4 58 10 19 15 15 65 -7 77 -25 13 -29 12 -71 -6z"/>
<path d="M7227 7206 c-63 -26 -111 -59 -172 -119 -37 -36 -40 -44 -40 -93 0
-29 6 -59 12 -65 17 -17 108 -15 135 3 13 8 35 18 50 22 l28 6 -6 -62 c-21
-247 -35 -301 -79 -318 -26 -10 -48 -3 -97 32 -23 17 -34 3 -22 -29 12 -36 90
-75 132 -67 70 14 108 106 117 280 9 178 13 198 49 240 48 57 59 80 46 103 -6
12 -17 17 -29 14 -26 -7 -79 -66 -87 -97 -3 -14 -16 -31 -27 -39 -25 -15 -98
-43 -139 -51 -26 -6 -28 -4 -28 24 0 37 67 105 150 153 44 25 65 31 107 30 57
-2 61 2 39 33 -20 28 -68 28 -139 0z"/>
<path d="M6683 7183 c-11 -16 -30 -59 -43 -98 -12 -38 -26 -74 -30 -80 -7 -9
-21 -56 -25 -80 0 -5 -7 -23 -13 -39 -7 -16 -10 -31 -8 -34 3 -2 -1 -17 -9
-33 -8 -15 -15 -38 -15 -49 0 -12 -6 -36 -14 -53 -51 -115 -52 -187 -3 -171
33 10 44 31 67 124 21 91 42 166 59 215 5 17 17 55 25 85 8 30 27 90 42 132
22 64 25 80 14 93 -17 21 -23 19 -47 -12z"/>
<path d="M2599 7116 c-1 -9 -2 -22 -3 -28 -1 -8 8 -12 23 -10 32 5 108 -17
123 -35 16 -20 12 -127 -8 -166 -9 -17 -28 -44 -42 -59 -21 -23 -23 -30 -12
-43 7 -8 18 -15 26 -15 23 0 82 60 89 90 4 17 11 32 16 35 12 8 11 111 -1 156
-16 59 -52 82 -137 87 -62 4 -73 2 -74 -12z"/>
<path d="M5745 7110 c-8 -12 8 -34 48 -69 30 -26 99 -126 104 -151 14 -84
-115 -234 -214 -247 -56 -7 -83 27 -83 106 1 79 57 183 121 223 30 18 35 26
28 41 -15 27 -32 21 -77 -28 -23 -25 -46 -45 -52 -45 -5 0 -10 -9 -10 -20 0
-11 -4 -20 -8 -20 -18 0 -45 -66 -53 -128 -10 -83 2 -133 41 -165 60 -51 201
-11 275 79 58 71 81 122 84 179 3 68 -26 121 -108 200 -54 53 -83 66 -96 45z"/>
<path d="M3564 7100 c-29 -4 -56 -10 -61 -13 -5 -3 -41 -11 -79 -17 -38 -6
-81 -13 -96 -16 -19 -4 -32 1 -46 16 -14 15 -33 22 -59 23 -53 1 -165 -20
-199 -38 -16 -8 -35 -15 -41 -15 -7 0 -13 -6 -13 -14 0 -9 -8 -12 -24 -9 -13
3 -27 0 -31 -7 -10 -16 1 -24 22 -15 10 4 41 8 68 10 28 1 83 10 123 19 84 19
106 13 116 -35 11 -59 6 -130 -11 -161 -17 -28 -17 -30 1 -44 18 -12 22 -12
42 7 24 22 45 110 41 174 l-2 40 45 3 c25 1 99 12 164 23 149 25 147 26 135
-90 -10 -99 -44 -198 -79 -231 -26 -25 -39 -50 -34 -64 11 -28 41 -18 81 28
56 64 91 166 97 277 5 95 -7 137 -39 144 -54 11 -72 12 -121 5z"/>
<path d="M4238 7104 c-3 -3 -32 -7 -63 -10 -31 -2 -70 -11 -86 -19 -15 -8 -34
-15 -41 -15 -31 -1 -116 -97 -139 -157 -15 -40 0 -80 42 -108 34 -24 44 -26
91 -20 59 8 172 60 231 107 21 16 39 28 40 27 1 -2 13 -24 26 -49 32 -62 62
-83 98 -69 35 13 64 39 57 50 -3 5 -20 9 -39 9 -36 0 -54 17 -90 83 -11 20
-25 37 -32 37 -8 0 -13 12 -13 29 0 16 -7 34 -15 41 -8 7 -15 18 -15 25 0 6
-8 19 -18 28 -20 18 -26 20 -34 11z m14 -91 c28 -25 22 -60 -14 -94 -66 -60
-248 -100 -256 -56 -10 51 47 129 113 152 56 20 134 19 157 -2z"/>
<path d="M5122 7094 c-13 -9 -21 -21 -19 -27 2 -7 -8 -17 -23 -23 -18 -8 -34
-29 -51 -68 -22 -52 -27 -56 -59 -57 -64 -4 -82 2 -142 42 -33 21 -67 39 -76
40 -11 1 -7 4 8 9 25 8 25 8 2 9 -13 1 -20 5 -17 11 9 15 -24 25 -38 11 -9 -9
-8 -14 3 -21 10 -7 11 -10 3 -10 -7 0 -13 -4 -13 -10 0 -15 71 -90 85 -90 8 0
20 -6 28 -14 22 -22 113 -49 142 -42 18 5 25 2 25 -8 0 -37 -33 -182 -46 -200
-8 -11 -14 -27 -14 -34 0 -27 -35 -88 -74 -129 -63 -67 -144 -82 -147 -27 -1
13 -3 29 -4 34 -1 6 -3 17 -4 25 -2 24 -30 18 -35 -7 -5 -21 -2 -65 4 -78 1
-3 3 -9 4 -15 0 -5 6 -19 13 -30 10 -17 22 -20 75 -20 64 0 64 0 120 55 31 30
68 76 82 101 29 53 39 88 69 249 17 86 41 150 57 150 6 0 10 8 8 18 -3 9 4 34
14 54 10 21 18 46 18 57 0 11 9 22 20 26 11 3 20 13 20 21 0 18 -10 18 -38 -2z"/>
<path d="M8847 6732 c-25 -27 -22 -69 5 -77 16 -6 26 -1 39 16 19 25 26 69 10
69 -5 0 -16 2 -23 5 -8 3 -22 -3 -31 -13z"/>
<path d="M10060 6469 c0 -178 12 -352 21 -309 5 19 6 51 4 70 -3 19 -7 104 -9
189 -3 84 -8 156 -11 159 -3 3 -5 -46 -5 -109z"/>
<path d="M6683 6523 c-7 -3 -36 -34 -64 -69 -51 -65 -106 -124 -115 -124 -9 0
-64 -61 -64 -70 0 -15 12 -12 76 19 76 37 180 137 163 157 -9 11 -7 14 8 14
17 0 20 6 18 35 -3 40 -5 44 -22 38z"/>
<path d="M10070 6079 c0 -19 5 -41 10 -49 7 -11 9 -3 7 27 -3 51 -17 70 -17
22z"/>
<path d="M3897 6093 c-12 -12 -7 -33 8 -33 17 0 19 9 7 28 -5 7 -11 9 -15 5z"/>
<path d="M10085 5745 c4 -137 9 -263 10 -280 1 -16 3 -57 3 -89 1 -33 6 -56
10 -50 5 5 5 90 1 189 -4 99 -10 245 -12 323 -3 79 -9 147 -13 150 -4 4 -3
-105 1 -243z"/>
<path d="M6212 5720 c-19 -11 -43 -29 -55 -40 -11 -11 -24 -20 -28 -20 -15 0
-37 -58 -26 -69 7 -7 7 -14 -1 -24 -7 -8 -9 -17 -5 -21 4 -4 8 -21 9 -37 1
-22 -2 -29 -12 -25 -8 3 -14 1 -14 -3 0 -5 7 -11 15 -15 8 -3 15 -13 15 -22 0
-12 -6 -9 -22 11 -16 20 -21 39 -19 75 1 27 -3 51 -9 55 -5 3 -7 21 -5 38 5
28 1 36 -24 55 -53 39 -156 23 -167 -26 -4 -15 -14 -36 -24 -47 -31 -36 -40
-63 -34 -102 5 -36 53 -103 73 -103 16 0 42 -95 46 -172 2 -40 8 -91 13 -114
5 -22 5 -49 1 -60 -9 -23 -1 -84 15 -104 13 -17 13 -35 2 -67 -14 -42 29 -93
79 -93 27 0 37 6 54 33 19 30 20 44 15 153 -3 65 -7 157 -8 204 -1 47 -5 90
-8 96 -4 5 -3 16 2 23 10 18 41 6 34 -12 -3 -8 2 -21 10 -30 9 -9 16 -22 16
-29 0 -7 25 -28 56 -46 50 -29 63 -32 125 -30 38 1 72 -2 76 -5 3 -4 8 -45 9
-91 l3 -84 -29 -12 c-45 -19 -82 -5 -108 41 -34 60 -74 68 -131 27 -20 -14
-22 -22 -17 -51 3 -18 17 -44 31 -57 14 -13 25 -31 25 -39 0 -17 92 -81 116
-81 7 0 18 9 24 20 12 23 45 27 53 6 4 -10 15 -12 46 -6 45 8 94 51 104 93 4
15 13 27 20 27 8 0 7 4 -3 10 -13 9 -13 12 4 25 10 7 15 18 12 24 -4 5 -2 12
2 15 11 6 9 197 -2 214 -4 7 -14 12 -22 12 -26 0 -8 63 24 83 21 14 13 45 -17
66 -25 18 -29 27 -25 55 2 18 10 46 18 61 19 35 12 51 -41 99 -24 22 -43 44
-43 48 0 5 -11 24 -25 42 l-25 33 -67 -9 c-57 -8 -69 -7 -79 6 -14 20 -12 20
-52 -4z m318 -400 c0 -5 -2 -10 -4 -10 -3 0 -8 5 -11 10 -3 6 -1 10 4 10 6 0
11 -4 11 -10z"/>
<path d="M6110 5720 c0 -5 16 -10 36 -10 21 0 33 4 29 10 -3 6 -19 10 -36 10
-16 0 -29 -4 -29 -10z"/>
<path d="M6738 5680 c-16 -24 -37 -26 -53 -3 -13 18 -51 11 -39 -8 3 -6 1 -15
-6 -19 -7 -5 -13 -22 -12 -38 0 -26 -4 -32 -29 -37 -23 -5 -29 -11 -26 -28 10
-56 30 -71 52 -40 12 16 14 14 20 -20 5 -25 17 -44 38 -59 l30 -21 -22 -18
c-24 -19 -27 -35 -8 -42 8 -4 5 -11 -10 -24 -42 -35 -73 -108 -74 -172 -1 -33
2 -64 6 -70 9 -16 25 -3 25 20 0 21 15 25 26 7 12 -20 14 -62 3 -69 -6 -3 -12
-24 -14 -46 -4 -36 -2 -40 26 -50 27 -10 29 -14 19 -33 -9 -17 -8 -22 7 -27
10 -4 29 -18 42 -31 24 -24 25 -24 38 -6 11 15 15 16 22 5 12 -19 71 -5 71 17
0 12 2 14 8 4 6 -9 13 -7 30 8 27 25 32 25 32 0 0 -45 57 -2 108 81 27 45 27
48 1 57 -21 8 -22 12 -31 109 -1 6 -7 9 -14 6 -6 -2 -15 0 -19 6 -9 15 -28 14
-19 -1 4 -7 -2 -4 -14 6 l-22 19 0 -71 c0 -89 -25 -127 -87 -130 -65 -4 -111
60 -64 90 21 13 17 36 -11 56 -26 19 -22 50 7 64 17 8 25 19 25 38 0 14 5 31
12 38 9 9 8 12 -5 12 -9 0 -17 1 -17 3 0 1 4 17 9 35 9 29 7 33 -15 38 -24 6
-24 7 -8 26 15 16 20 17 32 5 12 -13 20 -11 58 10 24 14 42 29 39 34 -7 11 36
54 55 54 8 0 17 13 20 30 4 17 13 40 21 53 13 21 12 25 -12 46 -14 12 -28 29
-31 37 -10 26 -88 61 -120 55 -15 -3 -28 -1 -28 4 0 19 -59 11 -72 -10z m136
-71 c9 -17 13 -35 10 -40 -3 -5 -2 -15 2 -21 14 -22 12 -49 -3 -43 -11 4 -14
-3 -11 -25 2 -18 -3 -34 -11 -39 -8 -6 -12 -19 -9 -35 5 -26 -5 -35 -17 -15
-4 6 -13 8 -21 5 -17 -6 -18 6 -3 21 8 8 6 13 -8 17 -10 3 -27 20 -37 36 l-18
31 38 -3 c34 -3 40 1 52 26 13 25 12 33 -3 65 l-18 36 -9 -32 c-10 -37 -13
-38 -51 -20 -18 8 -25 17 -21 27 4 8 6 23 6 32 -1 13 6 15 32 11 20 -3 36 -1
40 6 11 17 42 -4 60 -40z m-224 -393 c0 -3 -4 -8 -10 -11 -5 -3 -10 -1 -10 4
0 6 5 11 10 11 6 0 10 -2 10 -4z m111 -306 c25 -14 24 -30 -1 -30 -11 0 -20 2
-20 4 0 2 -3 11 -6 20 -7 19 0 20 27 6z"/>
<path d="M2379 5637 c-20 -4 -49 -22 -65 -38 -24 -26 -28 -36 -27 -91 0 -35 4
-94 7 -131 5 -42 3 -73 -3 -80 -5 -7 -9 -54 -7 -105 2 -92 2 -92 36 -122 19
-16 45 -30 58 -31 12 -1 26 -2 32 -3 12 -1 48 23 69 47 8 9 21 17 27 17 7 0
14 5 16 11 7 20 68 0 78 -26 11 -28 17 -266 7 -282 -4 -6 -24 -11 -44 -11 -37
0 -69 24 -103 76 -22 34 -102 50 -136 27 -14 -9 -29 -28 -35 -42 -11 -31 -2
-88 17 -104 8 -6 14 -18 14 -25 0 -23 68 -83 119 -105 25 -11 53 -24 62 -29
10 -5 32 -5 55 1 22 6 57 15 79 21 56 15 87 30 92 48 3 8 11 26 18 40 24 46
37 114 41 210 2 52 6 114 9 137 4 26 1 51 -6 65 -7 13 -14 28 -14 33 -1 6 -6
23 -13 38 -7 16 -12 32 -12 37 0 5 -20 21 -45 36 -25 14 -49 33 -55 42 -5 10
-10 12 -10 5 0 -7 -11 -13 -25 -13 -28 0 -105 36 -117 54 -8 12 -3 64 7 74 10
11 115 19 115 9 0 -5 13 -7 29 -4 15 3 33 1 39 -5 17 -17 27 -1 12 17 -15 18
1 20 18 3 9 -9 12 -9 12 3 0 8 9 20 20 26 26 17 45 89 31 120 -11 25 -50 46
-91 49 -89 8 -281 9 -311 1z"/>
<path d="M7384 5593 c-3 -10 -10 -26 -15 -35 -6 -12 -6 -18 2 -18 8 0 7 -5 -2
-16 -15 -18 -35 -51 -45 -74 -3 -8 -12 -28 -19 -45 -8 -16 -11 -33 -9 -37 7
-11 39 -5 58 11 8 7 20 10 25 7 5 -4 12 -2 16 4 3 5 -1 10 -9 10 -21 0 -21 38
0 61 10 11 17 41 19 78 3 59 -9 91 -21 54z"/>
<path d="M3701 5566 c-22 -23 -22 -29 -16 -127 4 -57 11 -113 16 -125 14 -38
23 -174 11 -174 -11 0 -10 -60 2 -79 10 -15 15 -45 23 -134 5 -62 4 -70 -17
-92 -35 -37 -80 -28 -80 17 0 24 -68 68 -106 68 -46 0 -64 -26 -60 -87 3 -63
33 -109 93 -148 63 -40 120 -44 169 -12 36 23 71 56 103 99 20 26 32 137 20
183 -18 67 -29 201 -34 398 -2 122 -8 193 -15 202 -7 8 -10 18 -7 22 3 4 -14
9 -37 10 -34 2 -47 -2 -65 -21z"/>
<path d="M4297 5574 c-15 -8 -32 -26 -37 -40 -12 -31 -13 -74 -1 -74 4 0 9
-12 9 -27 0 -16 6 -62 11 -103 6 -41 13 -124 15 -185 2 -60 6 -117 9 -125 9
-23 13 -150 5 -150 -4 0 -13 -12 -20 -27 -16 -32 -68 -49 -99 -33 -37 20 -84
190 -57 206 8 5 5 93 -9 244 -4 41 -6 121 -5 178 2 90 -1 105 -18 122 -24 24
-39 25 -85 6 -30 -13 -34 -19 -37 -58 -2 -24 2 -56 9 -73 11 -30 23 -144 28
-261 1 -34 5 -66 9 -72 3 -6 6 -68 5 -139 -2 -111 1 -136 20 -186 13 -32 31
-63 42 -70 25 -16 24 -27 -2 -27 -11 0 -19 -5 -17 -12 6 -18 24 -20 39 -5 10
9 39 13 95 13 l82 -1 58 46 c54 42 60 51 66 95 9 58 3 85 -18 77 -18 -7 -18 7
1 21 22 17 21 115 -2 366 -4 41 -7 118 -7 170 -1 87 -2 97 -25 118 -28 26 -28
26 -64 6z"/>
<path d="M4560 5543 c-21 -27 -21 -22 -5 -173 3 -25 11 -85 19 -135 9 -59 12
-162 11 -300 -3 -243 2 -264 66 -265 39 0 57 27 59 90 3 54 -1 76 -21 152 -6
25 -6 44 0 56 7 13 6 27 -5 48 -11 21 -13 34 -5 51 6 13 8 30 5 38 -9 24 11
18 44 -14 22 -20 29 -34 25 -50 -3 -11 -1 -33 5 -49 5 -15 20 -60 32 -99 13
-40 26 -73 30 -73 4 0 11 -20 14 -45 12 -76 83 -125 128 -87 10 7 17 38 21 82
3 38 11 78 17 90 9 16 8 21 -4 26 -18 7 -35 54 -38 106 -2 21 -6 38 -9 38 -3
0 -7 27 -7 60 -1 36 3 60 10 60 7 0 7 4 -1 13 -6 8 -9 16 -6 18 4 4 -7 87 -19
142 -4 15 -3 33 0 39 10 15 5 135 -6 163 -6 15 -21 26 -41 30 -67 15 -90 -54
-53 -163 8 -23 14 -60 14 -82 0 -21 5 -42 10 -45 6 -4 7 -13 2 -23 -5 -9 -8
-43 -6 -74 l2 -57 -33 32 c-23 22 -38 49 -45 82 -7 28 -21 68 -31 91 -11 22
-19 48 -19 58 0 10 -7 32 -16 49 -30 58 -32 63 -28 88 6 34 -5 45 -54 52 -37
4 -45 2 -62 -20z"/>
<path d="M7274 5308 c-4 -13 -12 -27 -19 -33 -21 -17 -27 -61 -10 -75 8 -7 12
-16 9 -21 -8 -13 10 -11 24 3 9 9 12 8 12 -7 0 -17 1 -17 20 0 19 18 29 9 11
-10 -5 -6 -12 -26 -15 -45 -4 -23 -3 -28 2 -15 8 18 9 18 19 1 13 -23 24 -7
24 32 0 54 -14 84 -35 76 -8 -3 -17 -1 -21 5 -3 6 0 9 8 5 8 -3 18 -1 21 4 9
15 -4 42 -21 42 -9 0 -11 5 -6 13 4 6 9 20 10 30 4 25 -24 21 -33 -5z"/>
<path d="M6967 5273 c-4 -3 -7 -17 -7 -30 0 -16 6 -23 20 -23 11 0 20 3 20 8
0 4 3 17 6 30 5 17 2 22 -13 22 -11 0 -23 -3 -26 -7z"/>
<path d="M6926 5235 c-3 -9 0 -15 9 -15 8 0 15 7 15 15 0 8 -4 15 -9 15 -5 0
-11 -7 -15 -15z"/>
<path d="M6820 5210 c0 -5 5 -10 10 -10 6 0 10 5 10 10 0 6 -4 10 -10 10 -5 0
-10 -4 -10 -10z"/>
<path d="M10115 4960 c4 -146 11 -319 15 -385 5 -85 6 -51 3 115 -5 294 -14
523 -21 530 -2 3 -1 -114 3 -260z"/>
<path d="M6615 5030 c-3 -5 1 -10 9 -10 9 0 16 5 16 10 0 6 -4 10 -9 10 -6 0
-13 -4 -16 -10z"/>
<path d="M7280 5015 c0 -9 -7 -18 -15 -21 -8 -4 -12 -11 -8 -16 3 -6 -8 -3
-25 8 -41 23 -52 13 -56 -55 -3 -62 9 -81 44 -71 14 5 19 8 12 9 -22 2 -2 21
22 21 13 0 30 8 40 19 14 16 15 20 2 30 -13 11 -13 18 -1 52 12 34 12 39 0 39
-8 0 -15 -7 -15 -15z"/>
<path d="M5159 4809 c-31 -33 -35 -44 -19 -54 6 -4 8 -10 5 -14 -8 -13 42 -61
63 -61 11 0 31 11 45 25 26 26 26 29 1 97 -3 9 -20 21 -36 27 -27 10 -33 8
-59 -20z"/>
<path d="M10142 4230 c0 -19 2 -27 5 -17 2 9 2 25 0 35 -3 9 -5 1 -5 -18z"/>
<path d="M10142 4150 c0 -14 2 -19 5 -12 2 6 2 18 0 25 -3 6 -5 1 -5 -13z"/>
<path d="M10142 4070 c0 -19 2 -27 5 -17 2 9 2 25 0 35 -3 9 -5 1 -5 -18z"/>
<path d="M10141 3956 c0 -39 3 -66 7 -60 5 5 6 36 2 69 l-7 60 -2 -69z"/>
<path d="M10153 3740 c0 -25 2 -35 4 -22 2 12 2 32 0 45 -2 12 -4 2 -4 -23z"/>
<path d="M10153 3645 c0 -22 2 -30 4 -17 2 12 2 30 0 40 -3 9 -5 -1 -4 -23z"/>
<path d="M10163 3320 c0 -41 2 -58 4 -37 2 20 2 54 0 75 -2 20 -4 3 -4 -38z"/>
<path d="M10162 3000 c0 -14 2 -19 5 -12 2 6 2 18 0 25 -3 6 -5 1 -5 -13z"/>
<path d="M10174 2675 c0 -82 2 -115 3 -72 2 43 2 110 0 150 -1 40 -3 5 -3 -78z"/>
<path d="M10183 2460 c0 -25 2 -35 4 -22 2 12 2 32 0 45 -2 12 -4 2 -4 -23z"/>
<path d="M10182 2330 c0 -14 2 -19 5 -12 2 6 2 18 0 25 -3 6 -5 1 -5 -13z"/>
<path d="M10193 1900 c0 -25 2 -35 4 -22 2 12 2 32 0 45 -2 12 -4 2 -4 -23z"/>
<path d="M10202 1520 c0 -14 2 -19 5 -12 2 6 2 18 0 25 -3 6 -5 1 -5 -13z"/>
<path d="M238 1123 c7 -3 16 -2 19 1 4 3 -2 6 -13 5 -11 0 -14 -3 -6 -6z"/>
</g>
</svg>
