<?xml version="1.0" standalone="no"?>
<!DOCTYPE svg PUBLIC "-//W3C//DTD SVG 20010904//EN"
 "http://www.w3.org/TR/2001/REC-SVG-20010904/DTD/svg10.dtd">
<svg version="1.0" xmlns="http://www.w3.org/2000/svg"
 width="473.000000pt" height="219.000000pt" viewBox="0 0 473.000000 219.000000"
 preserveAspectRatio="xMidYMid meet">
<metadata>
Created by potrace 1.15, written by Peter Selinger 2001-2017
</metadata>
<g transform="translate(0.000000,219.000000) scale(0.100000,-0.100000)"
fill="#000000" stroke="none">
<path d="M985 1973 c-49 -13 -115 -68 -115 -97 0 -17 -2 -18 -10 -6 -9 13 -11
13 -20 0 -13 -19 -13 -37 0 -45 6 -3 10 -2 10 4 0 5 9 12 19 16 10 3 21 15 24
25 3 11 11 20 17 20 10 0 10 -3 0 -15 -8 -9 -9 -15 -2 -15 6 0 14 5 17 10 4 6
24 19 46 31 22 11 37 24 34 28 -3 5 4 7 15 4 11 -3 20 -1 20 4 0 5 7 10 14 10
8 0 14 -3 13 -6 -1 -3 7 -16 18 -28 37 -40 45 -52 45 -67 0 -22 18 -29 23 -9
2 10 2 -6 -1 -34 -3 -33 -1 -53 5 -53 15 0 22 -37 10 -49 -8 -8 -6 -11 6 -11
9 0 17 -4 17 -10 0 -5 -7 -10 -16 -10 -14 0 -14 -3 -4 -15 25 -30 35 -16 34
43 0 66 -21 169 -35 177 -5 4 -9 17 -9 31 0 13 -4 24 -9 24 -5 0 -16 6 -23 13
-38 34 -85 44 -143 30z"/>
<path d="M797 1795 c-9 -7 -17 -14 -17 -17 0 -8 50 3 55 12 9 14 -20 18 -38 5z"/>
<path d="M3618 1781 c-9 -11 -14 -22 -10 -25 9 -10 12 -76 3 -76 -7 0 -8 -31
-2 -49 3 -12 41 35 41 51 0 11 5 16 10 13 13 -8 13 61 0 86 -13 24 -21 24 -42
0z"/>
<path d="M760 1742 c0 -12 19 -26 26 -19 2 2 -2 10 -11 17 -9 8 -15 8 -15 2z"/>
<path d="M690 1610 c0 -23 10 -26 28 -8 18 18 15 28 -8 28 -13 0 -20 -7 -20
-20z"/>
<path d="M1154 1618 c3 -10 0 -20 -5 -24 -6 -3 -9 -17 -6 -31 11 -61 -53 -184
-135 -256 -83 -73 -183 -147 -200 -147 -9 0 -20 -4 -23 -10 -3 -5 -14 -10 -24
-10 -10 0 -40 -11 -67 -25 -27 -14 -65 -30 -84 -36 -19 -6 -50 -20 -69 -31
l-34 -19 6 45 c4 26 5 46 2 46 -7 0 -96 -93 -106 -111 -6 -12 -5 -27 3 -43 9
-21 8 -29 -6 -45 -26 -28 -40 -89 -25 -107 10 -12 15 -10 30 15 9 16 19 39 21
52 5 38 31 33 63 -11 17 -23 35 -47 41 -54 7 -7 22 -37 35 -67 12 -30 36 -71
52 -92 16 -21 27 -40 24 -43 -11 -11 61 -103 172 -220 27 -28 52 -61 56 -73 3
-11 10 -21 15 -21 5 0 19 -18 31 -40 17 -30 29 -40 44 -38 50 7 8 99 -97 212
-29 31 -66 74 -83 96 -16 22 -42 53 -56 70 -14 16 -32 43 -39 60 -7 16 -17 30
-22 30 -5 0 -7 4 -3 9 3 5 -1 15 -8 23 -8 7 -28 43 -45 79 -19 40 -50 83 -77
108 -36 33 -46 48 -43 69 3 25 6 27 53 28 28 0 70 9 95 21 25 11 69 31 99 43
30 12 71 32 90 44 20 13 73 45 119 72 67 40 94 63 142 126 33 42 60 81 60 85
0 5 9 26 21 48 12 21 23 62 26 89 8 84 7 94 -9 78 -9 -9 -15 -7 -25 6 -14 16
-14 16 -9 0z m23 -80 c-3 -7 -5 -2 -5 12 0 14 2 19 5 13 2 -7 2 -19 0 -25z
m-497 -938 c0 -5 -5 -10 -11 -10 -5 0 -7 5 -4 10 3 6 8 10 11 10 2 0 4 -4 4
-10z"/>
<path d="M640 1515 c-10 -20 -11 -28 -2 -37 9 -9 12 -8 12 4 0 9 9 18 20 21
11 3 20 12 20 21 0 25 -35 19 -50 -9z"/>
<path d="M2267 1510 c-31 -24 -63 -86 -73 -137 -3 -18 -9 -33 -13 -33 -11 0
-41 -67 -71 -160 -81 -247 -128 -356 -171 -394 -32 -29 -38 -63 -12 -73 11 -5
26 5 47 29 43 50 98 71 162 63 54 -6 58 -11 104 -115 7 -18 -9 -80 -28 -100
-49 -57 -62 -70 -88 -83 -16 -8 -55 -18 -86 -22 -66 -8 -121 6 -159 41 -14 14
-27 22 -30 20 -2 -2 -5 13 -7 34 -1 21 2 41 8 45 15 9 12 35 -4 35 -23 0 -66
-40 -66 -61 0 -13 4 -18 12 -13 6 4 8 3 5 -3 -22 -36 57 -118 143 -148 61 -21
78 -19 174 21 96 40 135 77 161 153 18 53 19 118 2 147 -36 62 -57 77 -123 90
-36 6 -74 10 -85 7 -21 -6 -26 15 -10 45 19 36 42 113 44 145 1 19 7 33 12 30
6 -2 18 19 26 46 10 33 12 52 5 54 -5 2 -1 16 11 33 24 34 31 63 19 82 -4 7
-5 16 -1 20 3 3 10 0 15 -8 8 -12 10 -11 10 5 0 21 2 25 64 139 42 77 43 97 3
66z"/>
<path d="M584 1448 c-22 -10 -39 -61 -28 -80 3 -5 18 -7 33 -4 21 5 23 4 8 -4
-9 -6 -29 -22 -44 -36 -23 -22 -25 -28 -15 -45 15 -24 5 -69 -15 -69 -10 0
-13 -9 -11 -32 2 -20 9 -33 17 -33 15 0 45 53 55 99 6 23 4 27 -8 23 -24 -9
-26 6 -5 33 15 20 19 22 19 8 0 -10 4 -18 8 -18 13 0 36 76 29 94 -4 10 -1 16
9 16 11 0 14 8 12 28 -3 30 -28 38 -64 20z"/>
<path d="M4030 1111 c0 -5 7 -11 15 -15 8 -3 15 -17 15 -33 -1 -27 -1 -27 -15
-9 -14 19 -15 19 -21 0 -8 -24 -29 -73 -64 -149 -28 -60 -44 -101 -46 -120 0
-5 -8 -27 -18 -47 -9 -21 -16 -41 -16 -47 0 -5 -7 -22 -15 -37 -8 -16 -15 -39
-15 -51 0 -12 -12 -30 -27 -41 -98 -68 -244 -43 -318 54 -11 15 -27 34 -37 44
-9 10 -14 21 -10 24 3 3 0 16 -7 29 -14 27 -30 157 -19 157 4 0 8 5 8 10 0 6
-7 10 -15 10 -8 0 -15 5 -15 11 0 21 -62 -57 -91 -116 -17 -33 -39 -69 -50
-81 -10 -11 -19 -28 -19 -37 0 -9 -5 -19 -10 -22 -6 -4 -22 -28 -35 -55 l-25
-49 21 -12 c18 -9 25 -7 43 12 12 13 28 39 35 57 7 17 17 32 21 32 4 0 12 17
18 38 16 48 48 90 60 77 5 -5 15 -28 22 -50 29 -89 106 -181 170 -200 14 -4
31 -12 38 -18 15 -12 96 -11 154 3 58 13 58 13 58 -10 0 -22 22 -27 38 -7 11
12 28 57 63 162 11 33 33 92 48 130 16 39 34 88 41 110 7 22 26 67 41 101 33
69 39 138 13 148 -22 8 -34 7 -34 -3z"/>
<path d="M4495 960 c-3 -5 -1 -10 4 -10 6 0 11 5 11 10 0 6 -2 10 -4 10 -3 0
-8 -4 -11 -10z"/>
<path d="M3018 939 c-33 -17 -63 -20 -230 -24 -105 -2 -195 -8 -201 -14 -5 -5
-7 -17 -5 -27 3 -16 20 -18 191 -21 180 -4 189 -3 220 18 49 34 87 71 81 81
-7 11 -14 10 -56 -13z"/>
<path d="M1156 942 c-4 -7 -5 -16 -2 -20 2 -4 -4 -9 -15 -9 -34 -3 -76 -66
-108 -161 -15 -43 -16 -61 -8 -97 6 -25 14 -45 19 -45 4 0 8 -12 8 -27 1 -31
14 -49 78 -105 36 -33 49 -38 91 -38 62 0 144 26 177 57 14 12 29 23 35 23 14
0 138 132 156 166 26 51 2 194 -34 194 -17 0 -17 -27 0 -33 10 -4 10 -6 0 -6
-9 -1 -13 -20 -13 -60 0 -40 -5 -65 -15 -75 -8 -8 -15 -23 -15 -33 0 -15 3
-14 20 7 11 14 20 21 20 16 0 -17 -32 -45 -45 -40 -7 3 -39 -22 -71 -55 -32
-34 -61 -61 -65 -61 -4 0 -24 -7 -45 -17 -22 -9 -63 -16 -91 -16 -60 -1 -91
21 -124 85 -45 88 -9 238 71 293 22 15 40 33 40 39 0 6 -4 4 -9 -3 -8 -12 -13
-11 -29 9 -13 16 -21 20 -26 12z m429 -222 c-3 -5 -11 -10 -16 -10 -6 0 -7 5
-4 10 3 6 11 10 16 10 6 0 7 -4 4 -10z m-208 -206 c-3 -3 -12 -4 -19 -1 -8 3
-5 6 6 6 11 1 17 -2 13 -5z"/>
<path d="M1203 943 c9 -2 23 -2 30 0 6 3 -1 5 -18 5 -16 0 -22 -2 -12 -5z"/>
<path d="M2544 803 c-10 -24 -22 -43 -26 -43 -16 0 -38 -67 -38 -115 0 -85 28
-131 125 -204 24 -18 40 -22 95 -20 71 2 92 7 287 69 78 25 134 49 138 58 8
22 4 23 -50 7 -26 -8 -59 -15 -72 -15 -13 0 -31 -4 -41 -9 -51 -27 -229 -58
-303 -52 -23 2 -97 69 -116 104 -15 30 -12 99 6 122 19 23 30 81 22 110 l-8
30 -19 -42z"/>
<path d="M348 783 c-21 -5 -23 -14 -5 -32 10 -11 9 -13 -1 -7 -9 6 -11 -4 -8
-38 2 -32 0 -46 -9 -46 -7 0 -13 -10 -12 -22 0 -13 -2 -29 -4 -37 -2 -7 1 -15
6 -17 13 -5 65 151 65 194 0 12 -3 13 -32 5z"/>
<path d="M2855 738 c-47 -14 -102 -21 -168 -22 -81 -1 -97 -4 -95 -16 2 -8 16
-21 32 -29 68 -32 366 38 340 80 -7 13 -29 10 -109 -13z"/>
<path d="M270 580 c0 -5 5 -10 10 -10 6 0 10 5 10 10 0 6 -4 10 -10 10 -5 0
-10 -4 -10 -10z"/>
<path d="M229 433 c-12 -16 -12 -17 2 -6 9 7 19 10 22 6 4 -3 7 -1 7 5 0 17
-16 15 -31 -5z"/>
<path d="M247 400 c-3 -13 -10 -18 -21 -14 -11 4 -16 1 -16 -10 0 -23 19 -20
41 7 20 24 24 37 10 37 -5 0 -11 -9 -14 -20z"/>
</g>
</svg>
