<svg width="473" height="219" version="1.1" xmlns="http://www.w3.org/2000/svg" desc="Created with ImageTracer.java version 1.1.2" ><path desc="l 0 p 0" fill="rgb(254,254,254)" stroke="rgb(254,254,254)" stroke-width="1" opacity="1.0" d="M 0.5 0.0 L 473.0 0.5 L 472.5 219.0 L 0.0 218.5 L 0.5 0.0 Z" /><path desc="l 12 p 0" fill="rgb(218,218,218)" stroke="rgb(218,218,218)" stroke-width="1" opacity="1.0" d="M 105.5 20.0 L 107.0 20.5 L 104.5 22.0 L 105.5 20.0 Z" /><path desc="l 12 p 1" fill="rgb(218,218,218)" stroke="rgb(218,218,218)" stroke-width="1" opacity="1.0" d="M 97.5 21.0 L 100.0 21.5 L 97.5 22.0 L 97.5 21.0 Z" /><path desc="l 13 p 0" fill="rgb(141,141,141)" stroke="rgb(141,141,141)" stroke-width="1" opacity="1.0" d="M 100.5 21.0 L 102.5 22.0 L 105.5 21.0 L 112.0 23.5 L 112.5 25.0 L 116.0 27.5 Q 115.3 31.8 118.0 32.5 L 121.0 47.5 L 119.5 50.0 L 118.0 49.5 L 115.0 39.5 L 117.0 35.5 L 115.0 34.5 L 114.5 37.0 Q 113.1 30.4 108.5 27.0 L 106.0 25.5 L 108.0 24.5 L 104.5 24.0 L 103.5 26.0 L 92.0 31.5 L 91.5 33.0 L 90.0 32.5 Q 93.8 30.8 90.5 29.0 L 88.5 34.0 L 85.0 35.5 L 84.5 37.0 L 83.0 33.5 L 84.5 31.0 L 86.0 31.5 L 86.5 33.0 L 89.5 27.0 L 91.0 26.5 L 91.5 25.0 L 100.5 21.0 Z" /><path desc="l 12 p 2" fill="rgb(218,218,218)" stroke="rgb(218,218,218)" stroke-width="1" opacity="1.0" d="M 108.5 21.0 L 109.5 23.0 L 108.5 21.0 Z" /><path desc="l 12 p 3" fill="rgb(218,218,218)" stroke="rgb(218,218,218)" stroke-width="1" opacity="1.0" d="M 95.5 22.0 L 94.5 24.0 L 91.0 25.5 L 91.5 27.0 L 94.0 28.5 L 92.5 29.0 L 89.5 27.0 L 86.5 33.0 L 85.5 31.0 L 84.0 31.5 L 83.0 34.5 L 84.5 37.0 L 85.5 35.0 L 89.0 33.5 L 90.5 29.0 L 93.5 31.0 L 95.5 30.0 L 95.5 31.0 L 92.5 33.0 L 91.5 31.0 L 90.5 34.0 L 84.5 38.0 Q 81.5 37.5 82.0 33.5 L 84.5 30.0 L 87.0 29.5 L 91.5 24.0 L 95.5 22.0 Z" /><path desc="l 12 p 4" fill="rgb(218,218,218)" stroke="rgb(218,218,218)" stroke-width="1" opacity="1.0" d="M 99.5 23.0 L 102.0 24.5 L 101.5 27.0 Q 97.9 25.9 99.5 23.0 Z" /><path desc="l 12 p 5" fill="rgb(218,218,218)" stroke="rgb(218,218,218)" stroke-width="1" opacity="1.0" d="M 104.5 24.0 L 108.0 24.5 L 106.0 25.5 L 111.0 29.5 L 114.5 37.0 L 115.5 34.0 Q 118.3 35.3 116.0 36.5 L 115.5 39.0 L 114.0 38.5 L 111.5 32.0 L 110.0 31.5 L 108.5 28.0 L 104.5 24.0 Z" /><path desc="l 12 p 6" fill="rgb(218,218,218)" stroke="rgb(218,218,218)" stroke-width="1" opacity="1.0" d="M 112.5 24.0 L 116.0 25.5 L 115.5 27.0 L 112.5 24.0 Z" /><path desc="l 12 p 7" fill="rgb(218,218,218)" stroke="rgb(218,218,218)" stroke-width="1" opacity="1.0" d="M 116.5 28.0 L 119.0 34.5 L 118.0 34.5 L 117.0 31.5 L 116.5 28.0 Z" /><path desc="l 12 p 8" fill="rgb(218,218,218)" stroke="rgb(218,218,218)" stroke-width="1" opacity="1.0" d="M 119.5 37.0 L 122.0 48.5 L 119.5 52.0 L 116.0 50.5 L 116.5 49.0 L 115.0 48.5 L 115.0 46.5 L 115.5 43.0 L 118.0 43.5 L 117.0 46.5 L 118.5 50.0 L 120.0 49.5 L 121.0 46.5 L 119.5 37.0 Z" /><path desc="l 12 p 9" fill="rgb(218,218,218)" stroke="rgb(218,218,218)" stroke-width="1" opacity="1.0" d="M 80.5 38.0 L 79.5 40.0 L 78.0 40.5 L 80.0 41.5 Q 78.5 44.5 77.0 41.5 L 78.5 39.0 L 80.5 38.0 Z" /><path desc="l 13 p 1" fill="rgb(141,141,141)" stroke="rgb(141,141,141)" stroke-width="1" opacity="1.0" d="M 81.5 38.0 L 83.0 40.5 L 78.5 41.0 L 78.5 40.0 L 81.5 38.0 Z" /><path desc="l 12 p 10" fill="rgb(218,218,218)" stroke="rgb(218,218,218)" stroke-width="1" opacity="1.0" d="M 82.5 38.0 L 84.0 40.5 L 81.5 42.0 L 81.5 41.0 L 83.0 40.5 L 82.5 38.0 Z" /><path desc="l 12 p 11" fill="rgb(218,218,218)" stroke="rgb(218,218,218)" stroke-width="1" opacity="1.0" d="M 363.5 38.0 L 366.0 39.5 L 364.5 39.0 L 362.0 40.5 L 361.5 42.0 L 360.0 41.5 L 363.5 38.0 Z" /><path desc="l 13 p 2" fill="rgb(141,141,141)" stroke="rgb(141,141,141)" stroke-width="1" opacity="1.0" d="M 363.5 39.0 L 366.0 40.5 L 367.0 49.5 L 366.0 49.5 L 365.5 48.0 Q 365.9 54.4 361.5 56.0 Q 358.8 54.8 361.0 53.5 L 360.0 51.5 L 362.0 50.5 L 363.0 48.5 L 360.0 42.5 L 362.0 41.5 L 363.5 39.0 Z" /><path desc="l 12 p 12" fill="rgb(218,218,218)" stroke="rgb(218,218,218)" stroke-width="1" opacity="1.0" d="M 76.5 43.0 Q 79.5 43.5 79.0 47.5 L 76.5 48.0 L 75.0 44.5 L 76.5 43.0 Z" /><path desc="l 12 p 13" fill="rgb(218,218,218)" stroke="rgb(218,218,218)" stroke-width="1" opacity="1.0" d="M 367.5 43.0 L 368.0 48.5 L 367.0 48.5 L 367.5 43.0 Z" /><path desc="l 13 p 3" fill="rgb(141,141,141)" stroke="rgb(141,141,141)" stroke-width="1" opacity="1.0" d="M 76.5 44.0 L 78.0 46.5 L 76.0 45.5 L 76.5 44.0 Z" /><path desc="l 12 p 14" fill="rgb(218,218,218)" stroke="rgb(218,218,218)" stroke-width="1" opacity="1.0" d="M 361.5 45.0 L 363.0 48.5 L 361.5 51.0 L 360.0 50.5 L 361.5 45.0 Z" /><path desc="l 12 p 15" fill="rgb(218,218,218)" stroke="rgb(218,218,218)" stroke-width="1" opacity="1.0" d="M 365.5 48.0 L 367.0 50.5 L 362.5 56.0 L 365.0 52.5 L 365.5 48.0 Z" /><path desc="l 13 p 4" fill="rgb(141,141,141)" stroke="rgb(141,141,141)" stroke-width="1" opacity="1.0" d="M 116.5 52.0 L 120.0 52.5 L 118.0 53.5 L 121.0 54.5 L 118.5 55.0 L 116.5 52.0 Z" /><path desc="l 12 p 16" fill="rgb(218,218,218)" stroke="rgb(218,218,218)" stroke-width="1" opacity="1.0" d="M 360.5 52.0 L 361.0 53.5 L 359.5 54.0 L 360.5 52.0 Z" /><path desc="l 12 p 17" fill="rgb(218,218,218)" stroke="rgb(218,218,218)" stroke-width="1" opacity="1.0" d="M 116.5 53.0 L 118.5 53.0 L 121.0 53.5 L 118.0 54.5 L 121.0 55.5 L 118.5 56.0 L 116.5 53.0 Z" /><path desc="l 12 p 18" fill="rgb(218,218,218)" stroke="rgb(218,218,218)" stroke-width="1" opacity="1.0" d="M 70.5 56.0 L 71.5 58.0 L 73.0 58.5 L 69.5 61.0 L 69.5 60.0 L 71.0 59.5 L 70.5 58.0 L 69.0 58.5 L 70.5 56.0 Z" /><path desc="l 13 p 5" fill="rgb(141,141,141)" stroke="rgb(141,141,141)" stroke-width="1" opacity="1.0" d="M 71.5 56.0 L 73.0 56.5 L 72.5 58.0 L 71.0 58.5 L 70.5 60.0 L 69.0 59.5 L 71.5 56.0 Z" /><path desc="l 13 p 6" fill="rgb(141,141,141)" stroke="rgb(141,141,141)" stroke-width="1" opacity="1.0" d="M 115.5 56.0 L 117.5 60.0 L 119.0 59.5 Q 116.8 58.3 119.5 57.0 L 121.0 59.5 L 119.0 68.5 L 118.0 73.5 L 113.0 82.5 L 103.5 95.0 L 80.5 109.0 L 64.5 116.0 L 54.5 119.0 L 50.5 118.0 Q 47.8 119.3 49.0 124.5 L 58.0 132.5 L 64.5 146.0 L 66.0 146.5 L 67.0 148.5 L 66.5 150.0 L 68.0 150.5 L 71.0 156.5 L 70.5 158.0 L 75.0 160.5 L 79.5 168.0 L 81.0 168.5 L 82.5 172.0 L 86.0 174.5 L 87.5 177.0 L 90.0 178.5 L 94.0 184.5 L 98.0 190.5 L 99.0 195.5 Q 98.3 197.8 94.5 197.0 L 86.5 185.0 L 81.0 178.5 L 69.5 165.0 L 68.0 164.5 L 70.0 163.5 L 67.0 162.5 L 68.0 158.5 L 66.5 159.0 Q 65.3 161.3 64.0 158.5 L 66.0 157.5 Q 57.8 150.2 54.5 138.0 L 53.0 137.5 L 46.5 128.0 L 43.0 129.5 L 42.0 133.5 L 39.5 139.0 Q 36.5 138.5 37.0 134.5 L 40.5 127.0 L 42.0 126.5 Q 42.8 121.2 40.0 119.5 L 42.5 115.0 L 49.0 109.5 L 49.5 108.0 L 50.5 110.0 L 52.0 109.5 Q 49.8 110.8 51.0 115.5 L 53.5 114.0 L 58.5 112.0 L 60.0 112.5 L 60.5 111.0 L 68.5 108.0 Q 71.5 105.0 77.5 105.0 L 80.5 103.0 L 83.5 102.0 L 88.5 98.0 L 96.0 92.5 L 108.0 81.5 L 109.5 78.0 L 111.0 77.5 L 115.0 63.5 L 115.0 61.5 L 116.0 58.5 L 115.5 56.0 Z" /><path desc="l 12 p 19" fill="rgb(218,218,218)" stroke="rgb(218,218,218)" stroke-width="1" opacity="1.0" d="M 116.5 56.0 L 119.0 57.5 L 118.5 60.0 L 117.0 59.5 L 116.5 56.0 Z" /><path desc="l 12 p 20" fill="rgb(218,218,218)" stroke="rgb(218,218,218)" stroke-width="1" opacity="1.0" d="M 120.5 57.0 L 122.0 59.5 L 120.5 64.0 L 120.0 60.5 L 120.0 58.5 L 120.5 57.0 Z" /><path desc="l 12 p 21" fill="rgb(218,218,218)" stroke="rgb(218,218,218)" stroke-width="1" opacity="1.0" d="M 115.5 58.0 L 115.0 59.5 L 114.0 62.5 L 115.0 66.5 L 110.5 78.0 L 108.0 79.5 Q 108.5 83.5 105.5 84.0 L 97.5 92.0 L 99.0 89.5 L 99.5 88.0 L 107.0 81.5 Q 106.5 77.0 110.0 76.5 L 114.0 65.5 L 113.0 62.5 L 115.5 58.0 Z" /><path desc="l 12 p 22" fill="rgb(218,218,218)" stroke="rgb(218,218,218)" stroke-width="1" opacity="1.0" d="M 117.5 61.0 L 118.0 65.5 L 116.0 64.5 L 117.5 61.0 Z" /><path desc="l 12 p 23" fill="rgb(218,218,218)" stroke="rgb(218,218,218)" stroke-width="1" opacity="1.0" d="M 66.5 64.0 L 70.0 66.5 L 67.5 70.0 L 65.5 71.0 L 63.5 68.0 L 63.0 70.5 L 63.5 72.0 L 62.0 68.5 L 65.0 66.5 L 64.5 68.0 L 67.5 69.0 L 69.0 66.5 L 66.5 64.0 Z" /><path desc="l 13 p 7" fill="rgb(141,141,141)" stroke="rgb(141,141,141)" stroke-width="1" opacity="1.0" d="M 65.5 65.0 L 69.0 66.5 L 67.5 69.0 L 64.5 68.0 L 65.0 69.5 L 64.5 72.0 L 63.0 68.5 L 65.5 65.0 Z" /><path desc="l 12 p 24" fill="rgb(218,218,218)" stroke="rgb(218,218,218)" stroke-width="1" opacity="1.0" d="M 119.5 65.0 L 120.0 70.5 L 119.0 70.5 L 119.5 65.0 Z" /><path desc="l 12 p 25" fill="rgb(218,218,218)" stroke="rgb(218,218,218)" stroke-width="1" opacity="1.0" d="M 229.5 65.0 Q 231.8 65.8 231.0 69.5 L 223.5 81.0 L 222.0 80.5 L 224.0 79.5 L 230.0 67.5 L 227.5 67.0 L 223.0 72.5 L 219.5 81.0 L 219.0 77.5 L 225.5 67.0 L 229.5 65.0 Z" /><path desc="l 13 p 8" fill="rgb(141,141,141)" stroke="rgb(141,141,141)" stroke-width="1" opacity="1.0" d="M 227.5 67.0 L 230.0 67.5 L 223.5 80.0 L 222.0 80.5 Q 224.5 82.0 221.0 83.5 L 219.5 89.0 L 217.5 88.0 L 217.0 90.5 L 218.0 95.5 L 216.0 96.5 L 214.0 101.5 L 215.0 104.5 L 213.0 105.5 L 214.0 108.5 L 210.0 115.5 L 209.0 120.5 L 207.0 126.5 L 204.0 132.5 L 207.5 134.0 L 209.5 133.0 L 217.5 135.0 Q 221.3 134.3 222.0 136.5 L 227.0 141.5 Q 230.0 145.5 229.0 153.5 Q 226.8 162.3 221.5 168.0 L 211.0 173.5 Q 206.3 176.8 198.5 177.0 Q 186.7 174.8 181.0 166.5 L 179.0 162.5 L 178.0 157.5 Q 179.9 153.4 185.5 153.0 L 186.0 155.5 L 183.0 159.5 L 184.0 164.5 L 183.5 166.0 L 185.0 165.5 L 185.5 164.0 Q 187.1 168.9 193.0 169.5 L 199.5 172.0 L 207.5 170.0 L 211.5 169.0 L 216.0 166.5 L 217.5 164.0 L 220.0 162.5 L 220.5 160.0 L 223.0 158.5 L 225.0 151.5 Q 222.3 150.8 223.0 146.5 L 218.5 139.0 L 207.5 138.0 L 198.0 143.5 L 195.5 147.0 L 192.5 148.0 L 191.0 143.5 Q 199.7 137.7 202.0 125.5 L 207.0 113.5 L 209.0 107.5 L 211.0 104.5 L 210.0 102.5 L 217.5 85.0 L 219.0 84.5 L 219.5 81.0 L 222.5 74.0 Q 223.0 68.5 227.5 67.0 Z" /><path desc="l 13 p 9" fill="rgb(141,141,141)" stroke="rgb(141,141,141)" stroke-width="1" opacity="1.0" d="M 60.5 73.0 Q 64.3 72.3 65.0 74.5 L 64.0 76.5 L 65.0 78.5 L 61.0 79.5 L 63.0 80.5 Q 63.8 85.3 61.5 87.0 Q 57.8 86.3 57.0 88.5 L 54.5 92.0 L 53.0 88.5 L 57.0 85.5 L 57.5 84.0 L 62.0 82.5 L 59.5 82.0 L 56.5 83.0 L 55.0 79.5 Q 58.5 78.0 56.0 76.5 L 56.5 75.0 L 58.5 74.0 L 60.0 74.5 L 60.5 73.0 Z" /><path desc="l 8 p 0" fill="rgb(75,41,87)" stroke="rgb(75,41,87)" stroke-width="1" opacity="0.803921568627451" d="M 61.5 74.0 L 62.0 77.5 L 61.0 77.5 L 61.5 74.0 Z" /><path desc="l 12 p 26" fill="rgb(218,218,218)" stroke="rgb(218,218,218)" stroke-width="1" opacity="1.0" d="M 117.5 74.0 L 116.5 76.0 L 117.5 74.0 Z" /><path desc="l 12 p 27" fill="rgb(218,218,218)" stroke="rgb(218,218,218)" stroke-width="1" opacity="1.0" d="M 55.5 75.0 L 57.0 77.5 L 55.0 81.5 L 55.5 83.0 L 54.0 79.5 L 55.5 75.0 Z" /><path desc="l 12 p 28" fill="rgb(218,218,218)" stroke="rgb(218,218,218)" stroke-width="1" opacity="1.0" d="M 115.5 78.0 L 116.0 80.5 L 103.5 96.0 L 96.5 100.0 L 96.5 99.0 L 104.0 94.5 L 111.0 84.5 Q 115.1 83.1 115.5 78.0 Z" /><path desc="l 12 p 29" fill="rgb(218,218,218)" stroke="rgb(218,218,218)" stroke-width="1" opacity="1.0" d="M 61.5 79.0 L 64.0 79.5 L 61.5 80.0 L 61.5 79.0 Z" /><path desc="l 12 p 30" fill="rgb(218,218,218)" stroke="rgb(218,218,218)" stroke-width="1" opacity="1.0" d="M 59.5 82.0 L 62.0 82.5 L 56.5 85.0 L 57.5 83.0 L 59.5 82.0 Z" /><path desc="l 12 p 31" fill="rgb(218,218,218)" stroke="rgb(218,218,218)" stroke-width="1" opacity="1.0" d="M 218.5 82.0 L 219.0 84.5 L 217.5 85.0 L 218.0 83.5 L 218.5 82.0 Z" /><path desc="l 12 p 32" fill="rgb(218,218,218)" stroke="rgb(218,218,218)" stroke-width="1" opacity="1.0" d="M 222.5 82.0 L 223.0 83.5 L 215.5 104.0 L 214.0 100.5 L 216.5 96.0 L 218.0 95.5 L 216.5 88.0 L 215.0 88.5 L 216.5 86.0 L 217.5 88.0 L 219.5 89.0 L 222.5 82.0 Z" /><path desc="l 12 p 33" fill="rgb(218,218,218)" stroke="rgb(218,218,218)" stroke-width="1" opacity="1.0" d="M 62.5 85.0 L 63.0 86.5 L 61.5 90.0 L 60.5 88.0 L 58.0 88.5 L 56.0 91.5 L 56.5 93.0 L 55.0 92.5 L 58.5 87.0 L 62.0 86.5 L 62.5 85.0 Z" /><path desc="l 12 p 34" fill="rgb(218,218,218)" stroke="rgb(218,218,218)" stroke-width="1" opacity="1.0" d="M 52.5 87.0 L 55.0 87.5 L 52.5 89.0 L 52.5 87.0 Z" /><path desc="l 13 p 10" fill="rgb(141,141,141)" stroke="rgb(141,141,141)" stroke-width="1" opacity="1.0" d="M 59.5 88.0 L 61.0 88.5 L 60.5 90.0 L 59.0 89.5 L 59.5 88.0 Z" /><path desc="l 12 p 35" fill="rgb(218,218,218)" stroke="rgb(218,218,218)" stroke-width="1" opacity="1.0" d="M 214.5 90.0 L 215.0 91.5 L 213.5 94.0 L 213.0 92.5 L 214.5 90.0 Z" /><path desc="l 13 p 11" fill="rgb(141,141,141)" stroke="rgb(141,141,141)" stroke-width="1" opacity="1.0" d="M 57.5 92.0 Q 60.3 93.3 58.0 94.5 Q 58.0 102.0 53.5 105.0 L 51.0 103.5 L 51.5 98.0 L 55.0 97.5 L 54.0 95.5 L 55.5 93.0 L 57.5 92.0 Z" /><path desc="l 12 p 36" fill="rgb(218,218,218)" stroke="rgb(218,218,218)" stroke-width="1" opacity="1.0" d="M 100.5 92.0 L 99.5 94.0 L 100.5 92.0 Z" /><path desc="l 12 p 37" fill="rgb(218,218,218)" stroke="rgb(218,218,218)" stroke-width="1" opacity="1.0" d="M 93.5 93.0 L 89.5 98.0 L 81.5 103.0 L 76.5 105.0 L 77.5 103.0 L 80.5 101.0 L 82.5 101.0 L 93.5 93.0 Z" /><path desc="l 12 p 38" fill="rgb(218,218,218)" stroke="rgb(218,218,218)" stroke-width="1" opacity="1.0" d="M 58.5 94.0 L 59.0 96.5 L 58.0 96.5 L 58.5 94.0 Z" /><path desc="l 12 p 39" fill="rgb(218,218,218)" stroke="rgb(218,218,218)" stroke-width="1" opacity="1.0" d="M 212.5 95.0 L 213.0 96.5 L 210.5 102.0 L 210.0 100.5 L 212.5 95.0 Z" /><path desc="l 12 p 40" fill="rgb(218,218,218)" stroke="rgb(218,218,218)" stroke-width="1" opacity="1.0" d="M 53.5 99.0 L 55.0 99.5 L 54.5 101.0 L 52.0 100.5 L 53.5 99.0 Z" /><path desc="l 12 p 41" fill="rgb(218,218,218)" stroke="rgb(218,218,218)" stroke-width="1" opacity="1.0" d="M 94.5 100.0 L 92.5 103.0 L 94.5 100.0 Z" /><path desc="l 12 p 42" fill="rgb(218,218,218)" stroke="rgb(218,218,218)" stroke-width="1" opacity="1.0" d="M 56.5 101.0 L 55.5 103.0 L 56.5 101.0 Z" /><path desc="l 12 p 43" fill="rgb(218,218,218)" stroke="rgb(218,218,218)" stroke-width="1" opacity="1.0" d="M 209.5 103.0 L 212.0 106.5 L 211.0 106.5 L 210.5 105.0 L 209.0 105.5 L 209.5 103.0 Z" /><path desc="l 12 p 44" fill="rgb(218,218,218)" stroke="rgb(218,218,218)" stroke-width="1" opacity="1.0" d="M 86.5 105.0 L 85.5 107.0 L 80.5 110.0 L 82.5 107.0 L 86.5 105.0 Z" /><path desc="l 12 p 45" fill="rgb(218,218,218)" stroke="rgb(218,218,218)" stroke-width="1" opacity="1.0" d="M 213.5 105.0 L 215.0 105.5 L 214.5 108.0 L 213.5 105.0 Z" /><path desc="l 12 p 46" fill="rgb(218,218,218)" stroke="rgb(218,218,218)" stroke-width="1" opacity="1.0" d="M 403.5 106.0 Q 408.3 105.3 409.0 108.5 Q 410.0 115.6 407.5 119.0 L 407.0 116.5 Q 409.8 114.8 408.0 108.5 L 404.5 107.0 L 403.5 106.0 Z" /><path desc="l 13 p 12" fill="rgb(141,141,141)" stroke="rgb(141,141,141)" stroke-width="1" opacity="1.0" d="M 403.5 107.0 L 408.0 108.5 Q 409.1 117.1 405.5 121.0 L 402.5 128.0 L 401.0 128.5 L 402.0 130.5 L 386.5 172.0 L 384.0 172.5 L 384.5 174.0 L 382.0 173.5 L 381.5 170.0 L 376.5 171.0 Q 371.0 173.5 361.5 172.0 L 359.5 169.0 L 357.5 170.0 L 346.0 161.5 L 337.5 144.0 L 335.0 144.5 L 333.5 148.0 Q 331.3 148.8 332.0 152.5 L 322.5 167.0 L 319.0 165.5 L 320.0 160.5 L 325.0 153.5 L 326.0 149.5 L 329.0 146.5 L 337.5 131.0 L 340.0 129.5 L 340.5 128.0 L 341.5 130.0 L 344.0 131.5 L 341.0 132.5 L 343.0 133.5 Q 341.8 141.8 344.0 146.5 L 346.0 150.5 L 345.5 152.0 L 347.0 152.5 L 350.5 158.0 L 352.0 158.5 L 354.5 162.0 L 359.0 164.5 Q 359.8 166.8 363.5 166.0 L 373.5 167.0 L 379.5 165.0 L 385.0 160.5 L 386.0 153.5 L 388.0 150.5 L 390.0 143.5 Q 393.0 142.1 392.5 137.0 L 394.0 137.5 L 393.0 135.5 L 403.5 112.0 L 404.5 116.0 L 406.0 115.5 Q 407.3 110.3 404.5 109.0 L 403.0 108.5 L 403.5 107.0 Z" /><path desc="l 8 p 1" fill="rgb(75,41,87)" stroke="rgb(75,41,87)" stroke-width="1" opacity="0.803921568627451" d="M 51.5 108.0 L 50.5 110.0 L 51.5 108.0 Z" /><path desc="l 12 p 47" fill="rgb(218,218,218)" stroke="rgb(218,218,218)" stroke-width="1" opacity="1.0" d="M 48.5 109.0 L 43.5 115.0 L 42.0 114.5 L 48.5 109.0 Z" /><path desc="l 12 p 48" fill="rgb(218,218,218)" stroke="rgb(218,218,218)" stroke-width="1" opacity="1.0" d="M 213.5 109.0 L 214.0 110.5 L 211.5 114.0 L 210.5 112.0 L 209.0 112.5 L 213.0 110.5 L 213.5 109.0 Z" /><path desc="l 12 p 49" fill="rgb(218,218,218)" stroke="rgb(218,218,218)" stroke-width="1" opacity="1.0" d="M 403.5 109.0 L 406.0 110.5 L 405.5 116.0 L 404.0 115.5 L 403.5 112.0 L 394.5 131.0 L 395.0 129.5 L 403.5 109.0 Z" /><path desc="l 12 p 50" fill="rgb(218,218,218)" stroke="rgb(218,218,218)" stroke-width="1" opacity="1.0" d="M 207.5 110.0 L 208.0 111.5 L 206.5 114.0 L 206.0 112.5 L 207.5 110.0 Z" /><path desc="l 12 p 51" fill="rgb(218,218,218)" stroke="rgb(218,218,218)" stroke-width="1" opacity="1.0" d="M 75.5 111.0 L 77.0 111.5 L 66.5 116.0 L 67.5 114.0 Q 73.6 114.6 75.5 111.0 Z" /><path desc="l 12 p 52" fill="rgb(218,218,218)" stroke="rgb(218,218,218)" stroke-width="1" opacity="1.0" d="M 205.5 115.0 L 205.0 116.5 L 203.5 122.0 L 203.0 120.5 L 205.5 115.0 Z" /><path desc="l 12 p 53" fill="rgb(218,218,218)" stroke="rgb(218,218,218)" stroke-width="1" opacity="1.0" d="M 210.5 115.0 L 211.0 119.5 L 208.5 123.0 L 209.0 121.5 L 210.5 115.0 Z" /><path desc="l 12 p 54" fill="rgb(218,218,218)" stroke="rgb(218,218,218)" stroke-width="1" opacity="1.0" d="M 63.5 116.0 L 65.0 116.5 L 61.5 118.0 L 61.5 117.0 L 63.5 116.0 Z" /><path desc="l 12 p 55" fill="rgb(218,218,218)" stroke="rgb(218,218,218)" stroke-width="1" opacity="1.0" d="M 50.5 118.0 L 49.5 120.0 L 50.5 118.0 Z" /><path desc="l 12 p 56" fill="rgb(218,218,218)" stroke="rgb(218,218,218)" stroke-width="1" opacity="1.0" d="M 57.5 118.0 L 60.0 118.5 L 57.5 119.0 L 57.5 118.0 Z" /><path desc="l 12 p 57" fill="rgb(218,218,218)" stroke="rgb(218,218,218)" stroke-width="1" opacity="1.0" d="M 40.5 120.0 Q 42.8 121.8 42.0 126.5 L 40.5 127.0 L 41.0 125.5 L 40.5 120.0 Z" /><path desc="l 12 p 58" fill="rgb(218,218,218)" stroke="rgb(218,218,218)" stroke-width="1" opacity="1.0" d="M 406.5 120.0 L 406.0 121.5 L 402.5 130.0 L 402.0 128.5 L 406.5 120.0 Z" /><path desc="l 12 p 59" fill="rgb(218,218,218)" stroke="rgb(218,218,218)" stroke-width="1" opacity="1.0" d="M 206.5 121.0 L 207.0 123.5 L 205.0 122.5 L 206.5 121.0 Z" /><path desc="l 12 p 60" fill="rgb(218,218,218)" stroke="rgb(218,218,218)" stroke-width="1" opacity="1.0" d="M 450.5 121.0 L 453.0 122.5 L 451.5 125.0 L 448.0 123.5 L 448.5 122.0 L 450.5 121.0 Z" /><path desc="l 8 p 2" fill="rgb(75,41,87)" stroke="rgb(75,41,87)" stroke-width="1" opacity="0.803921568627451" d="M 45.5 122.0 L 47.0 122.5 L 45.0 123.5 L 45.5 122.0 Z" /><path desc="l 12 p 61" fill="rgb(218,218,218)" stroke="rgb(218,218,218)" stroke-width="1" opacity="1.0" d="M 305.5 122.0 L 309.0 123.5 L 303.5 130.0 L 305.0 127.5 L 305.5 126.0 L 307.0 125.5 L 306.5 123.0 L 300.5 126.0 Q 298.8 128.8 292.5 127.0 L 292.5 126.0 Q 298.0 127.5 299.5 125.0 L 305.5 122.0 Z" /><path desc="l 12 p 62" fill="rgb(218,218,218)" stroke="rgb(218,218,218)" stroke-width="1" opacity="1.0" d="M 120.5 123.0 Q 124.3 122.3 125.0 124.5 L 120.5 130.0 L 114.0 134.5 L 113.5 136.0 L 113.0 134.5 L 121.0 128.5 L 119.0 127.5 L 117.5 125.0 L 115.0 125.5 L 115.5 127.0 L 117.0 127.5 L 112.5 128.0 L 114.0 125.5 L 114.5 124.0 Q 119.3 125.3 120.5 123.0 Z" /><path desc="l 12 p 63" fill="rgb(218,218,218)" stroke="rgb(218,218,218)" stroke-width="1" opacity="1.0" d="M 202.5 123.0 L 203.0 124.5 L 201.5 128.0 L 201.0 125.5 L 202.5 123.0 Z" /><path desc="l 13 p 13" fill="rgb(141,141,141)" stroke="rgb(141,141,141)" stroke-width="1" opacity="1.0" d="M 305.5 123.0 L 307.0 123.5 L 306.5 126.0 L 305.0 126.5 L 302.5 130.0 L 300.5 131.0 L 299.0 130.5 L 298.5 132.0 L 297.0 132.5 L 296.5 134.0 Q 288.3 135.3 283.5 133.0 L 281.5 133.0 L 273.5 134.0 L 270.5 133.0 L 264.5 133.0 L 259.5 134.0 Q 257.3 133.3 258.0 129.5 Q 259.5 126.5 265.5 128.0 L 282.5 127.0 L 282.5 129.0 L 286.5 127.0 L 290.5 128.0 L 295.5 127.0 L 300.5 126.0 L 305.5 123.0 Z" /><path desc="l 12 p 64" fill="rgb(218,218,218)" stroke="rgb(218,218,218)" stroke-width="1" opacity="1.0" d="M 51.5 125.0 L 53.5 128.0 L 51.5 125.0 Z" /><path desc="l 13 p 14" fill="rgb(141,141,141)" stroke="rgb(141,141,141)" stroke-width="1" opacity="1.0" d="M 115.5 125.0 L 119.0 126.5 L 119.5 128.0 L 121.5 127.0 L 120.5 129.0 L 113.0 134.5 L 108.0 148.5 Q 110.8 150.3 109.0 156.5 Q 111.1 164.4 117.5 168.0 L 124.5 169.0 L 127.5 168.0 Q 129.0 170.5 130.5 167.0 L 134.5 166.0 L 140.0 162.5 L 148.0 155.5 L 149.5 153.0 L 151.0 152.5 L 151.5 149.0 L 153.0 148.5 L 154.5 142.0 L 155.0 136.5 L 154.5 135.0 L 156.0 134.5 L 154.0 133.5 L 154.5 131.0 L 157.0 132.5 Q 161.4 137.6 160.0 148.5 L 148.5 163.0 L 141.0 167.5 L 139.5 170.0 L 129.5 174.0 Q 125.7 176.7 117.5 175.0 L 105.0 163.5 L 104.5 158.0 L 103.0 157.5 Q 104.0 151.5 101.0 149.5 L 104.5 140.0 L 106.0 139.5 L 105.0 137.5 L 111.5 128.0 L 117.0 127.5 L 115.0 126.5 L 115.5 125.0 Z" /><path desc="l 12 p 65" fill="rgb(218,218,218)" stroke="rgb(218,218,218)" stroke-width="1" opacity="1.0" d="M 207.5 125.0 L 208.0 127.5 L 207.0 127.5 L 207.5 125.0 Z" /><path desc="l 12 p 66" fill="rgb(218,218,218)" stroke="rgb(218,218,218)" stroke-width="1" opacity="1.0" d="M 266.5 127.0 L 275.0 127.5 L 266.5 128.0 L 266.5 127.0 Z" /><path desc="l 12 p 67" fill="rgb(218,218,218)" stroke="rgb(218,218,218)" stroke-width="1" opacity="1.0" d="M 283.5 127.0 L 285.0 127.5 L 282.5 129.0 L 283.5 127.0 Z" /><path desc="l 12 p 68" fill="rgb(218,218,218)" stroke="rgb(218,218,218)" stroke-width="1" opacity="1.0" d="M 287.5 127.0 L 291.0 127.5 L 287.5 128.0 L 287.5 127.0 Z" /><path desc="l 12 p 69" fill="rgb(218,218,218)" stroke="rgb(218,218,218)" stroke-width="1" opacity="1.0" d="M 44.5 128.0 L 44.0 129.5 Q 44.6 136.1 40.5 138.0 L 41.0 136.5 L 44.5 128.0 Z" /><path desc="l 12 p 70" fill="rgb(218,218,218)" stroke="rgb(218,218,218)" stroke-width="1" opacity="1.0" d="M 46.5 128.0 L 52.0 135.5 L 51.0 135.5 L 46.5 128.0 Z" /><path desc="l 12 p 71" fill="rgb(218,218,218)" stroke="rgb(218,218,218)" stroke-width="1" opacity="1.0" d="M 110.5 128.0 L 111.0 129.5 L 105.5 137.0 L 106.0 135.5 L 107.5 132.0 L 110.5 128.0 Z" /><path desc="l 12 p 72" fill="rgb(218,218,218)" stroke="rgb(218,218,218)" stroke-width="1" opacity="1.0" d="M 258.5 128.0 L 258.0 129.5 L 257.5 131.0 L 257.0 129.5 L 258.5 128.0 Z" /><path desc="l 12 p 73" fill="rgb(218,218,218)" stroke="rgb(218,218,218)" stroke-width="1" opacity="1.0" d="M 292.5 128.0 L 295.0 128.5 L 292.5 129.0 L 292.5 128.0 Z" /><path desc="l 12 p 74" fill="rgb(218,218,218)" stroke="rgb(218,218,218)" stroke-width="1" opacity="1.0" d="M 339.5 128.0 L 340.0 129.5 L 337.5 131.0 L 337.5 130.0 L 339.0 129.5 L 339.5 128.0 Z" /><path desc="l 12 p 75" fill="rgb(218,218,218)" stroke="rgb(218,218,218)" stroke-width="1" opacity="1.0" d="M 341.5 128.0 L 345.0 130.5 L 344.0 134.5 L 344.0 143.5 L 346.0 147.5 L 344.0 146.5 L 342.5 133.0 L 341.0 132.5 L 344.0 131.5 L 341.0 129.5 L 341.5 128.0 Z" /><path desc="l 12 p 76" fill="rgb(218,218,218)" stroke="rgb(218,218,218)" stroke-width="1" opacity="1.0" d="M 55.5 129.0 L 61.0 136.5 L 60.0 136.5 L 55.5 129.0 Z" /><path desc="l 12 p 77" fill="rgb(218,218,218)" stroke="rgb(218,218,218)" stroke-width="1" opacity="1.0" d="M 206.5 129.0 L 206.0 130.5 L 205.0 132.5 L 209.0 134.5 L 207.5 134.0 L 204.0 132.5 L 206.5 129.0 Z" /><path desc="l 12 p 78" fill="rgb(218,218,218)" stroke="rgb(218,218,218)" stroke-width="1" opacity="1.0" d="M 155.5 130.0 L 158.0 131.5 L 160.0 138.5 L 159.0 138.5 L 158.0 134.5 L 155.5 130.0 Z" /><path desc="l 12 p 79" fill="rgb(218,218,218)" stroke="rgb(218,218,218)" stroke-width="1" opacity="1.0" d="M 37.5 131.0 L 38.0 133.5 L 37.0 133.5 L 37.5 131.0 Z" /><path desc="l 12 p 80" fill="rgb(218,218,218)" stroke="rgb(218,218,218)" stroke-width="1" opacity="1.0" d="M 153.5 131.0 L 154.5 134.0 L 156.0 134.5 L 154.0 135.5 Q 156.3 136.8 155.0 141.5 L 154.0 141.5 L 153.5 131.0 Z" /><path desc="l 12 p 81" fill="rgb(218,218,218)" stroke="rgb(218,218,218)" stroke-width="1" opacity="1.0" d="M 199.5 131.0 L 200.0 132.5 L 198.5 135.0 L 198.0 133.5 L 199.5 131.0 Z" /><path desc="l 12 p 82" fill="rgb(218,218,218)" stroke="rgb(218,218,218)" stroke-width="1" opacity="1.0" d="M 299.5 131.0 L 300.0 132.5 L 297.5 134.0 L 297.0 132.5 L 299.5 131.0 Z" /><path desc="l 12 p 83" fill="rgb(218,218,218)" stroke="rgb(218,218,218)" stroke-width="1" opacity="1.0" d="M 257.5 132.0 L 262.0 134.5 L 259.5 135.0 L 257.5 132.0 Z" /><path desc="l 12 p 84" fill="rgb(218,218,218)" stroke="rgb(218,218,218)" stroke-width="1" opacity="1.0" d="M 336.5 132.0 L 334.5 135.0 L 336.5 132.0 Z" /><path desc="l 12 p 85" fill="rgb(218,218,218)" stroke="rgb(218,218,218)" stroke-width="1" opacity="1.0" d="M 393.5 132.0 L 394.0 134.5 L 393.0 134.5 L 393.5 132.0 Z" /><path desc="l 12 p 86" fill="rgb(218,218,218)" stroke="rgb(218,218,218)" stroke-width="1" opacity="1.0" d="M 267.5 133.0 L 273.0 133.5 L 267.5 134.0 L 267.5 133.0 Z" /><path desc="l 12 p 87" fill="rgb(218,218,218)" stroke="rgb(218,218,218)" stroke-width="1" opacity="1.0" d="M 279.5 133.0 L 282.0 133.5 L 279.5 134.0 L 279.5 133.0 Z" /><path desc="l 12 p 88" fill="rgb(218,218,218)" stroke="rgb(218,218,218)" stroke-width="1" opacity="1.0" d="M 283.5 133.0 L 286.0 133.5 L 283.5 134.0 L 283.5 133.0 Z" /><path desc="l 12 p 89" fill="rgb(218,218,218)" stroke="rgb(218,218,218)" stroke-width="1" opacity="1.0" d="M 397.5 133.0 L 398.0 135.5 L 396.0 136.5 L 395.5 138.0 L 395.0 136.5 L 397.5 133.0 Z" /><path desc="l 12 p 90" fill="rgb(218,218,218)" stroke="rgb(218,218,218)" stroke-width="1" opacity="1.0" d="M 400.5 133.0 L 401.0 136.5 L 400.0 136.5 L 400.5 133.0 Z" /><path desc="l 12 p 91" fill="rgb(218,218,218)" stroke="rgb(218,218,218)" stroke-width="1" opacity="1.0" d="M 215.5 134.0 Q 221.3 132.8 222.5 136.0 L 228.0 141.5 L 229.0 145.5 L 228.0 145.5 Q 226.9 137.6 220.5 135.0 Q 214.5 136.3 215.5 134.0 Z" /><path desc="l 13 p 15" fill="rgb(141,141,141)" stroke="rgb(141,141,141)" stroke-width="1" opacity="1.0" d="M 256.5 135.0 L 258.0 141.5 Q 252.9 147.4 253.0 158.5 L 256.5 165.0 L 258.0 165.5 L 259.5 168.0 L 268.5 173.0 Q 271.4 170.4 277.5 171.0 L 282.5 170.0 L 289.5 168.0 L 301.5 165.0 L 312.5 162.0 L 313.0 163.5 L 311.5 166.0 L 275.5 177.0 L 273.5 176.0 L 270.5 177.0 L 263.5 177.0 L 250.0 165.5 L 249.0 162.5 L 248.0 157.5 L 248.0 148.5 L 251.5 143.0 L 253.0 142.5 L 253.5 140.0 L 255.0 139.5 Q 254.3 135.8 256.5 135.0 Z" /><path desc="l 12 p 92" fill="rgb(218,218,218)" stroke="rgb(218,218,218)" stroke-width="1" opacity="1.0" d="M 257.5 135.0 L 258.0 138.5 L 257.0 138.5 L 257.5 135.0 Z" /><path desc="l 12 p 93" fill="rgb(218,218,218)" stroke="rgb(218,218,218)" stroke-width="1" opacity="1.0" d="M 37.5 137.0 L 38.5 139.0 L 37.5 137.0 Z" /><path desc="l 12 p 94" fill="rgb(218,218,218)" stroke="rgb(218,218,218)" stroke-width="1" opacity="1.0" d="M 112.5 137.0 L 113.0 138.5 Q 109.4 140.4 110.0 146.5 L 109.5 154.0 L 108.0 148.5 L 109.0 143.5 L 112.5 137.0 Z" /><path desc="l 12 p 95" fill="rgb(218,218,218)" stroke="rgb(218,218,218)" stroke-width="1" opacity="1.0" d="M 196.5 137.0 L 191.5 143.0 L 196.5 137.0 Z" /><path desc="l 12 p 96" fill="rgb(218,218,218)" stroke="rgb(218,218,218)" stroke-width="1" opacity="1.0" d="M 61.5 138.0 L 65.0 145.5 L 63.0 144.5 L 61.5 138.0 Z" /><path desc="l 12 p 97" fill="rgb(218,218,218)" stroke="rgb(218,218,218)" stroke-width="1" opacity="1.0" d="M 104.5 138.0 L 105.5 140.0 L 104.0 139.5 L 104.5 138.0 Z" /><path desc="l 12 p 98" fill="rgb(218,218,218)" stroke="rgb(218,218,218)" stroke-width="1" opacity="1.0" d="M 207.5 138.0 Q 216.1 136.9 220.0 140.5 L 222.0 143.5 L 217.5 140.0 L 207.5 139.0 L 200.0 142.5 L 195.5 148.0 L 194.0 147.5 L 198.0 144.5 L 200.5 141.0 L 207.5 138.0 Z" /><path desc="l 12 p 99" fill="rgb(218,218,218)" stroke="rgb(218,218,218)" stroke-width="1" opacity="1.0" d="M 254.5 138.0 L 255.0 139.5 L 253.5 140.0 L 254.5 138.0 Z" /><path desc="l 12 p 100" fill="rgb(218,218,218)" stroke="rgb(218,218,218)" stroke-width="1" opacity="1.0" d="M 35.5 139.0 L 37.0 139.5 L 37.5 143.0 L 38.5 140.0 L 39.0 142.5 L 37.5 147.0 L 35.5 141.0 L 33.0 140.5 L 35.5 139.0 Z" /><path desc="l 12 p 101" fill="rgb(218,218,218)" stroke="rgb(218,218,218)" stroke-width="1" opacity="1.0" d="M 391.5 139.0 L 392.0 141.5 L 390.0 142.5 L 391.5 139.0 Z" /><path desc="l 13 p 16" fill="rgb(141,141,141)" stroke="rgb(141,141,141)" stroke-width="1" opacity="1.0" d="M 37.5 140.0 L 38.0 142.5 L 34.5 155.0 L 33.0 155.5 L 32.5 161.0 L 31.0 160.5 L 32.0 155.5 Q 29.8 154.3 32.5 153.0 L 34.0 152.5 L 34.0 150.5 L 35.0 143.5 L 33.0 142.5 L 33.5 141.0 L 36.0 141.5 L 36.5 143.0 L 37.5 140.0 Z" /><path desc="l 12 p 102" fill="rgb(218,218,218)" stroke="rgb(218,218,218)" stroke-width="1" opacity="1.0" d="M 160.5 140.0 L 161.0 142.5 L 160.0 142.5 L 160.5 140.0 Z" /><path desc="l 12 p 103" fill="rgb(218,218,218)" stroke="rgb(218,218,218)" stroke-width="1" opacity="1.0" d="M 398.5 140.0 L 399.0 141.5 L 397.5 144.0 L 397.0 142.5 L 398.5 140.0 Z" /><path desc="l 12 p 104" fill="rgb(218,218,218)" stroke="rgb(218,218,218)" stroke-width="1" opacity="1.0" d="M 103.5 141.0 L 104.0 143.5 L 103.0 143.5 L 103.5 141.0 Z" /><path desc="l 12 p 105" fill="rgb(218,218,218)" stroke="rgb(218,218,218)" stroke-width="1" opacity="1.0" d="M 331.5 141.0 L 330.5 143.0 L 331.5 141.0 Z" /><path desc="l 12 p 106" fill="rgb(218,218,218)" stroke="rgb(218,218,218)" stroke-width="1" opacity="1.0" d="M 257.5 142.0 L 258.0 143.5 L 254.5 152.0 L 254.0 149.5 L 257.5 142.0 Z" /><path desc="l 12 p 107" fill="rgb(218,218,218)" stroke="rgb(218,218,218)" stroke-width="1" opacity="1.0" d="M 33.5 143.0 L 35.0 143.5 L 33.0 151.5 L 33.5 153.0 L 31.5 154.0 L 32.0 152.5 L 33.5 143.0 Z" /><path desc="l 12 p 108" fill="rgb(218,218,218)" stroke="rgb(218,218,218)" stroke-width="1" opacity="1.0" d="M 153.5 143.0 L 154.0 146.5 L 153.0 146.5 L 153.5 143.0 Z" /><path desc="l 12 p 109" fill="rgb(218,218,218)" stroke="rgb(218,218,218)" stroke-width="1" opacity="1.0" d="M 289.5 143.0 L 292.0 143.5 L 272.5 148.0 L 272.5 147.0 L 289.5 143.0 Z" /><path desc="l 13 p 17" fill="rgb(141,141,141)" stroke="rgb(141,141,141)" stroke-width="1" opacity="1.0" d="M 292.5 143.0 L 296.0 143.5 L 294.5 147.0 L 280.5 152.0 L 280.5 150.0 L 279.0 150.5 L 278.5 152.0 L 265.5 153.0 L 263.5 152.0 Q 259.5 152.5 259.0 149.5 L 259.5 147.0 L 270.5 149.0 L 287.5 145.0 L 289.0 145.5 L 289.5 144.0 L 292.5 143.0 Z" /><path desc="l 12 p 110" fill="rgb(218,218,218)" stroke="rgb(218,218,218)" stroke-width="1" opacity="1.0" d="M 296.5 143.0 L 298.0 145.5 L 293.5 148.0 L 293.5 147.0 L 295.0 146.5 L 296.5 143.0 Z" /><path desc="l 12 p 111" fill="rgb(218,218,218)" stroke="rgb(218,218,218)" stroke-width="1" opacity="1.0" d="M 160.5 144.0 L 161.0 146.5 L 160.0 146.5 L 160.5 144.0 Z" /><path desc="l 12 p 112" fill="rgb(218,218,218)" stroke="rgb(218,218,218)" stroke-width="1" opacity="1.0" d="M 190.5 144.0 L 192.0 146.5 L 190.5 147.0 L 190.5 144.0 Z" /><path desc="l 12 p 113" fill="rgb(218,218,218)" stroke="rgb(218,218,218)" stroke-width="1" opacity="1.0" d="M 158.5 145.0 L 159.0 146.5 L 153.5 152.0 Q 151.8 155.8 150.0 152.5 L 150.5 149.0 L 151.5 153.0 L 154.5 149.0 L 156.0 148.5 L 156.5 146.0 L 158.5 145.0 Z" /><path desc="l 12 p 114" fill="rgb(218,218,218)" stroke="rgb(218,218,218)" stroke-width="1" opacity="1.0" d="M 222.5 145.0 L 223.0 147.5 L 222.0 147.5 L 222.5 145.0 Z" /><path desc="l 12 p 115" fill="rgb(218,218,218)" stroke="rgb(218,218,218)" stroke-width="1" opacity="1.0" d="M 249.5 146.0 L 248.5 148.0 L 249.5 146.0 Z" /><path desc="l 12 p 116" fill="rgb(218,218,218)" stroke="rgb(218,218,218)" stroke-width="1" opacity="1.0" d="M 261.5 146.0 L 262.5 148.0 L 261.5 146.0 Z" /><path desc="l 12 p 117" fill="rgb(218,218,218)" stroke="rgb(218,218,218)" stroke-width="1" opacity="1.0" d="M 328.5 146.0 L 325.5 150.0 L 328.5 146.0 Z" /><path desc="l 12 p 118" fill="rgb(218,218,218)" stroke="rgb(218,218,218)" stroke-width="1" opacity="1.0" d="M 229.5 147.0 L 230.0 152.5 L 229.0 152.5 L 229.5 147.0 Z" /><path desc="l 12 p 119" fill="rgb(218,218,218)" stroke="rgb(218,218,218)" stroke-width="1" opacity="1.0" d="M 268.5 147.0 L 271.0 148.5 L 269.5 148.0 L 268.5 147.0 Z" /><path desc="l 12 p 120" fill="rgb(218,218,218)" stroke="rgb(218,218,218)" stroke-width="1" opacity="1.0" d="M 395.5 147.0 L 396.0 148.5 L 394.5 151.0 L 394.0 149.5 L 395.5 147.0 Z" /><path desc="l 12 p 121" fill="rgb(218,218,218)" stroke="rgb(218,218,218)" stroke-width="1" opacity="1.0" d="M 36.5 148.0 L 37.0 151.5 L 32.5 162.0 L 29.0 160.5 L 31.5 155.0 L 32.0 156.5 L 31.0 160.5 L 32.5 161.0 L 33.5 155.0 L 35.0 154.5 L 36.5 148.0 Z" /><path desc="l 12 p 122" fill="rgb(218,218,218)" stroke="rgb(218,218,218)" stroke-width="1" opacity="1.0" d="M 159.5 149.0 L 159.0 150.5 L 158.5 152.0 L 158.0 150.5 L 159.5 149.0 Z" /><path desc="l 12 p 123" fill="rgb(218,218,218)" stroke="rgb(218,218,218)" stroke-width="1" opacity="1.0" d="M 247.5 149.0 L 248.5 161.0 L 250.0 160.5 L 249.0 162.5 L 250.0 164.5 L 249.0 164.5 Q 244.9 159.4 247.5 149.0 Z" /><path desc="l 12 p 124" fill="rgb(218,218,218)" stroke="rgb(218,218,218)" stroke-width="1" opacity="1.0" d="M 101.5 150.0 L 103.5 158.0 L 105.0 158.5 L 104.5 162.0 L 102.0 155.5 L 101.5 150.0 Z" /><path desc="l 12 p 125" fill="rgb(218,218,218)" stroke="rgb(218,218,218)" stroke-width="1" opacity="1.0" d="M 223.5 150.0 L 225.0 152.5 L 223.5 155.0 L 223.5 150.0 Z" /><path desc="l 12 p 126" fill="rgb(218,218,218)" stroke="rgb(218,218,218)" stroke-width="1" opacity="1.0" d="M 259.5 150.0 L 260.5 152.0 L 259.5 150.0 Z" /><path desc="l 12 p 127" fill="rgb(218,218,218)" stroke="rgb(218,218,218)" stroke-width="1" opacity="1.0" d="M 283.5 150.0 L 286.0 150.5 L 283.5 151.0 L 283.5 150.0 Z" /><path desc="l 12 p 128" fill="rgb(218,218,218)" stroke="rgb(218,218,218)" stroke-width="1" opacity="1.0" d="M 387.5 150.0 L 388.0 151.5 L 386.0 152.5 L 387.5 150.0 Z" /><path desc="l 12 p 129" fill="rgb(218,218,218)" stroke="rgb(218,218,218)" stroke-width="1" opacity="1.0" d="M 60.5 151.0 L 61.5 153.0 L 60.5 151.0 Z" /><path desc="l 12 p 130" fill="rgb(218,218,218)" stroke="rgb(218,218,218)" stroke-width="1" opacity="1.0" d="M 340.5 151.0 L 347.5 163.0 L 354.0 168.5 L 352.5 169.0 L 350.5 166.0 L 349.0 165.5 L 348.5 164.0 L 346.0 163.5 L 341.5 155.0 L 340.5 151.0 Z" /><path desc="l 12 p 131" fill="rgb(218,218,218)" stroke="rgb(218,218,218)" stroke-width="1" opacity="1.0" d="M 183.5 152.0 L 186.0 152.5 Q 180.4 153.4 178.0 157.5 L 178.5 161.0 L 179.5 159.0 L 181.0 159.5 L 179.0 162.5 L 186.5 172.0 L 189.0 173.5 L 187.5 173.0 L 181.0 168.5 L 178.0 162.5 Q 175.8 161.3 177.0 156.5 L 183.5 152.0 Z" /><path desc="l 12 p 132" fill="rgb(218,218,218)" stroke="rgb(218,218,218)" stroke-width="1" opacity="1.0" d="M 262.5 152.0 L 272.0 153.5 L 265.5 154.0 L 263.5 153.0 L 262.5 152.0 Z" /><path desc="l 12 p 133" fill="rgb(218,218,218)" stroke="rgb(218,218,218)" stroke-width="1" opacity="1.0" d="M 273.5 152.0 L 278.0 152.5 L 273.5 153.0 L 273.5 152.0 Z" /><path desc="l 12 p 134" fill="rgb(218,218,218)" stroke="rgb(218,218,218)" stroke-width="1" opacity="1.0" d="M 324.5 152.0 L 325.0 153.5 L 320.5 160.0 L 320.0 158.5 L 324.5 152.0 Z" /><path desc="l 12 p 135" fill="rgb(218,218,218)" stroke="rgb(218,218,218)" stroke-width="1" opacity="1.0" d="M 148.5 153.0 L 148.0 154.5 L 147.5 156.0 L 136.5 165.0 L 137.5 163.0 L 141.0 160.5 L 141.5 159.0 L 148.5 153.0 Z" /><path desc="l 12 p 136" fill="rgb(218,218,218)" stroke="rgb(218,218,218)" stroke-width="1" opacity="1.0" d="M 157.5 153.0 L 150.5 161.0 L 157.5 153.0 Z" /><path desc="l 12 p 137" fill="rgb(218,218,218)" stroke="rgb(218,218,218)" stroke-width="1" opacity="1.0" d="M 253.5 153.0 L 254.0 158.5 L 253.0 158.5 L 253.5 153.0 Z" /><path desc="l 12 p 138" fill="rgb(218,218,218)" stroke="rgb(218,218,218)" stroke-width="1" opacity="1.0" d="M 62.5 154.0 L 65.5 158.0 L 64.0 157.5 L 62.5 154.0 Z" /><path desc="l 8 p 3" fill="rgb(75,41,87)" stroke="rgb(75,41,87)" stroke-width="1" opacity="0.803921568627451" d="M 183.5 154.0 L 185.0 154.5 L 183.0 155.5 L 183.5 154.0 Z" /><path desc="l 12 p 139" fill="rgb(218,218,218)" stroke="rgb(218,218,218)" stroke-width="1" opacity="1.0" d="M 228.5 154.0 L 229.0 157.5 L 225.5 164.0 L 224.0 163.5 Q 228.2 160.7 228.5 154.0 Z" /><path desc="l 12 p 140" fill="rgb(218,218,218)" stroke="rgb(218,218,218)" stroke-width="1" opacity="1.0" d="M 327.5 154.0 L 329.0 154.5 L 327.5 157.0 L 327.5 154.0 Z" /><path desc="l 12 p 141" fill="rgb(218,218,218)" stroke="rgb(218,218,218)" stroke-width="1" opacity="1.0" d="M 330.5 155.0 L 331.0 156.5 L 329.5 157.0 L 330.5 155.0 Z" /><path desc="l 12 p 142" fill="rgb(218,218,218)" stroke="rgb(218,218,218)" stroke-width="1" opacity="1.0" d="M 185.5 156.0 L 184.0 158.5 L 183.5 160.0 L 183.0 158.5 L 185.5 156.0 Z" /><path desc="l 12 p 143" fill="rgb(218,218,218)" stroke="rgb(218,218,218)" stroke-width="1" opacity="1.0" d="M 222.5 156.0 L 223.0 158.5 L 221.0 159.5 L 222.5 156.0 Z" /><path desc="l 12 p 144" fill="rgb(218,218,218)" stroke="rgb(218,218,218)" stroke-width="1" opacity="1.0" d="M 349.5 156.0 L 350.5 158.0 L 349.5 156.0 Z" /><path desc="l 12 p 145" fill="rgb(218,218,218)" stroke="rgb(218,218,218)" stroke-width="1" opacity="1.0" d="M 384.5 157.0 L 385.0 160.5 Q 380.2 167.2 368.5 167.0 L 364.5 166.0 Q 359.0 167.0 358.0 163.5 L 360.5 165.0 L 373.5 166.0 L 379.5 164.0 L 384.0 160.5 L 384.5 157.0 Z" /><path desc="l 12 p 146" fill="rgb(218,218,218)" stroke="rgb(218,218,218)" stroke-width="1" opacity="1.0" d="M 67.5 158.0 L 68.0 159.5 L 67.0 162.5 L 68.5 165.0 L 70.0 165.5 L 68.5 166.0 L 64.0 159.5 Q 65.8 161.1 67.5 158.0 Z" /><path desc="l 12 p 147" fill="rgb(218,218,218)" stroke="rgb(218,218,218)" stroke-width="1" opacity="1.0" d="M 72.5 158.0 L 74.0 158.5 L 73.5 160.0 L 72.5 158.0 Z" /><path desc="l 8 p 4" fill="rgb(75,41,87)" stroke="rgb(75,41,87)" stroke-width="1" opacity="0.803921568627451" d="M 389.5 159.0 L 390.0 160.5 L 388.0 161.5 L 389.5 159.0 Z" /><path desc="l 13 p 18" fill="rgb(141,141,141)" stroke="rgb(141,141,141)" stroke-width="1" opacity="1.0" d="M 27.5 160.0 L 29.0 160.5 L 28.5 162.0 L 27.0 161.5 L 27.5 160.0 Z" /><path desc="l 12 p 148" fill="rgb(218,218,218)" stroke="rgb(218,218,218)" stroke-width="1" opacity="1.0" d="M 219.5 160.0 L 220.0 162.5 L 218.0 163.5 L 219.5 160.0 Z" /><path desc="l 12 p 149" fill="rgb(218,218,218)" stroke="rgb(218,218,218)" stroke-width="1" opacity="1.0" d="M 327.5 160.0 L 328.0 161.5 L 323.5 167.0 L 325.0 164.5 L 327.5 160.0 Z" /><path desc="l 12 p 150" fill="rgb(218,218,218)" stroke="rgb(218,218,218)" stroke-width="1" opacity="1.0" d="M 353.5 160.0 L 354.5 162.0 L 353.5 160.0 Z" /><path desc="l 12 p 151" fill="rgb(218,218,218)" stroke="rgb(218,218,218)" stroke-width="1" opacity="1.0" d="M 26.5 161.0 L 29.0 162.5 L 27.5 163.0 L 26.5 161.0 Z" /><path desc="l 12 p 152" fill="rgb(218,218,218)" stroke="rgb(218,218,218)" stroke-width="1" opacity="1.0" d="M 111.5 161.0 L 113.5 164.0 L 111.5 161.0 Z" /><path desc="l 12 p 153" fill="rgb(218,218,218)" stroke="rgb(218,218,218)" stroke-width="1" opacity="1.0" d="M 184.5 161.0 L 190.5 168.0 L 195.0 169.5 L 193.5 170.0 Q 187.8 168.8 185.5 164.0 L 184.5 166.0 L 183.0 165.5 L 184.5 161.0 Z" /><path desc="l 12 p 154" fill="rgb(218,218,218)" stroke="rgb(218,218,218)" stroke-width="1" opacity="1.0" d="M 322.5 161.0 L 324.0 161.5 L 323.5 163.0 L 322.0 162.5 L 322.5 161.0 Z" /><path desc="l 12 p 155" fill="rgb(218,218,218)" stroke="rgb(218,218,218)" stroke-width="1" opacity="1.0" d="M 308.5 162.0 L 311.0 162.5 L 301.5 165.0 L 284.5 169.0 L 284.5 168.0 L 308.5 162.0 Z" /><path desc="l 12 p 156" fill="rgb(218,218,218)" stroke="rgb(218,218,218)" stroke-width="1" opacity="1.0" d="M 76.5 163.0 L 80.5 168.0 L 79.0 167.5 L 76.5 163.0 Z" /><path desc="l 12 p 157" fill="rgb(218,218,218)" stroke="rgb(218,218,218)" stroke-width="1" opacity="1.0" d="M 147.5 163.0 L 147.0 164.5 L 146.5 166.0 L 144.5 167.0 L 147.5 163.0 Z" /><path desc="l 12 p 158" fill="rgb(218,218,218)" stroke="rgb(218,218,218)" stroke-width="1" opacity="1.0" d="M 255.5 163.0 L 267.5 171.0 L 269.5 171.0 L 282.5 169.0 L 281.5 171.0 Q 272.9 169.9 268.5 173.0 L 258.0 166.5 L 257.5 165.0 L 255.5 163.0 Z" /><path desc="l 12 p 159" fill="rgb(218,218,218)" stroke="rgb(218,218,218)" stroke-width="1" opacity="1.0" d="M 318.5 163.0 L 319.0 165.5 L 318.0 165.5 L 318.5 163.0 Z" /><path desc="l 12 p 160" fill="rgb(218,218,218)" stroke="rgb(218,218,218)" stroke-width="1" opacity="1.0" d="M 105.5 164.0 L 114.5 174.0 L 113.0 173.5 L 110.5 170.0 L 109.0 169.5 L 107.5 167.0 L 106.0 166.5 L 105.5 164.0 Z" /><path desc="l 12 p 161" fill="rgb(218,218,218)" stroke="rgb(218,218,218)" stroke-width="1" opacity="1.0" d="M 133.5 165.0 L 135.0 165.5 L 134.5 167.0 L 138.0 167.5 L 134.5 168.0 L 130.5 167.0 L 128.0 168.5 L 133.5 165.0 Z" /><path desc="l 12 p 162" fill="rgb(218,218,218)" stroke="rgb(218,218,218)" stroke-width="1" opacity="1.0" d="M 223.5 165.0 L 224.0 166.5 Q 219.9 171.9 212.5 174.0 L 202.5 177.0 L 202.5 176.0 Q 215.6 174.1 223.0 166.5 L 223.5 165.0 Z" /><path desc="l 12 p 163" fill="rgb(218,218,218)" stroke="rgb(218,218,218)" stroke-width="1" opacity="1.0" d="M 214.5 166.0 L 216.0 166.5 L 213.5 168.0 L 214.5 166.0 Z" /><path desc="l 12 p 164" fill="rgb(218,218,218)" stroke="rgb(218,218,218)" stroke-width="1" opacity="1.0" d="M 250.5 166.0 L 263.0 176.5 L 261.5 177.0 L 254.0 171.5 L 250.5 166.0 Z" /><path desc="l 12 p 165" fill="rgb(218,218,218)" stroke="rgb(218,218,218)" stroke-width="1" opacity="1.0" d="M 308.5 166.0 L 312.0 166.5 L 301.5 170.0 L 301.5 169.0 L 308.5 166.0 Z" /><path desc="l 12 p 166" fill="rgb(218,218,218)" stroke="rgb(218,218,218)" stroke-width="1" opacity="1.0" d="M 70.5 167.0 L 71.5 169.0 L 70.5 167.0 Z" /><path desc="l 12 p 167" fill="rgb(218,218,218)" stroke="rgb(218,218,218)" stroke-width="1" opacity="1.0" d="M 141.5 167.0 L 143.0 167.5 L 137.5 172.0 L 138.5 170.0 L 141.0 168.5 L 141.5 167.0 Z" /><path desc="l 12 p 168" fill="rgb(218,218,218)" stroke="rgb(218,218,218)" stroke-width="1" opacity="1.0" d="M 120.5 168.0 L 125.0 168.5 L 120.5 169.0 L 120.5 168.0 Z" /><path desc="l 12 p 169" fill="rgb(218,218,218)" stroke="rgb(218,218,218)" stroke-width="1" opacity="1.0" d="M 211.5 168.0 L 210.5 170.0 L 205.0 170.5 L 199.5 172.0 L 196.0 170.5 Q 205.3 170.8 211.5 168.0 Z" /><path desc="l 12 p 170" fill="rgb(218,218,218)" stroke="rgb(218,218,218)" stroke-width="1" opacity="1.0" d="M 355.5 169.0 L 360.5 171.0 L 364.5 172.0 L 373.0 172.5 L 361.5 173.0 L 357.5 171.0 L 355.5 169.0 Z" /><path desc="l 12 p 171" fill="rgb(218,218,218)" stroke="rgb(218,218,218)" stroke-width="1" opacity="1.0" d="M 387.5 169.0 L 388.0 171.5 L 384.0 174.5 L 385.5 172.0 L 387.0 171.5 L 387.5 169.0 Z" /><path desc="l 12 p 172" fill="rgb(218,218,218)" stroke="rgb(218,218,218)" stroke-width="1" opacity="1.0" d="M 73.5 170.0 L 75.5 173.0 L 73.5 170.0 Z" /><path desc="l 12 p 173" fill="rgb(218,218,218)" stroke="rgb(218,218,218)" stroke-width="1" opacity="1.0" d="M 298.5 170.0 L 300.0 170.5 L 291.5 173.0 L 291.5 172.0 L 298.5 170.0 Z" /><path desc="l 12 p 174" fill="rgb(218,218,218)" stroke="rgb(218,218,218)" stroke-width="1" opacity="1.0" d="M 378.5 170.0 L 382.0 170.5 L 381.5 174.0 L 380.5 171.0 Q 377.5 171.5 378.5 170.0 Z" /><path desc="l 12 p 175" fill="rgb(218,218,218)" stroke="rgb(218,218,218)" stroke-width="1" opacity="1.0" d="M 82.5 171.0 L 86.0 173.5 L 83.5 172.0 L 82.5 171.0 Z" /><path desc="l 12 p 176" fill="rgb(218,218,218)" stroke="rgb(218,218,218)" stroke-width="1" opacity="1.0" d="M 374.5 171.0 L 377.0 171.5 L 374.5 172.0 L 374.5 171.0 Z" /><path desc="l 12 p 177" fill="rgb(218,218,218)" stroke="rgb(218,218,218)" stroke-width="1" opacity="1.0" d="M 24.5 173.0 L 28.0 174.5 L 27.0 176.5 L 28.0 179.5 L 26.5 182.0 L 23.5 183.0 L 21.5 180.0 L 21.0 181.5 L 21.5 183.0 L 20.0 180.5 L 22.0 177.5 L 21.0 175.5 L 24.5 173.0 Z" /><path desc="l 12 p 178" fill="rgb(218,218,218)" stroke="rgb(218,218,218)" stroke-width="1" opacity="1.0" d="M 76.5 174.0 L 85.5 184.0 L 83.0 182.5 L 76.5 174.0 Z" /><path desc="l 12 p 179" fill="rgb(218,218,218)" stroke="rgb(218,218,218)" stroke-width="1" opacity="1.0" d="M 116.5 174.0 L 124.0 175.5 L 117.5 176.0 L 116.5 174.0 Z" /><path desc="l 12 p 180" fill="rgb(218,218,218)" stroke="rgb(218,218,218)" stroke-width="1" opacity="1.0" d="M 190.5 174.0 L 194.0 175.5 L 192.5 176.0 L 190.5 174.0 Z" /><path desc="l 12 p 181" fill="rgb(218,218,218)" stroke="rgb(218,218,218)" stroke-width="1" opacity="1.0" d="M 283.5 174.0 L 286.0 174.5 L 280.5 176.0 L 280.5 175.0 L 283.5 174.0 Z" /><path desc="l 13 p 19" fill="rgb(141,141,141)" stroke="rgb(141,141,141)" stroke-width="1" opacity="1.0" d="M 23.5 175.0 L 22.5 177.0 L 23.5 175.0 Z" /><path desc="l 12 p 182" fill="rgb(218,218,218)" stroke="rgb(218,218,218)" stroke-width="1" opacity="1.0" d="M 86.5 175.0 L 90.0 176.5 L 95.0 183.5 L 100.0 194.5 L 99.0 194.5 L 94.5 185.0 L 88.5 177.0 L 86.5 175.0 Z" /><path desc="l 12 p 183" fill="rgb(218,218,218)" stroke="rgb(218,218,218)" stroke-width="1" opacity="1.0" d="M 264.5 177.0 L 271.0 177.5 L 264.5 178.0 L 264.5 177.0 Z" /><path desc="l 13 p 20" fill="rgb(141,141,141)" stroke="rgb(141,141,141)" stroke-width="1" opacity="1.0" d="M 21.5 180.0 L 23.0 182.5 L 21.0 181.5 L 21.5 180.0 Z" /><path desc="l 12 p 184" fill="rgb(218,218,218)" stroke="rgb(218,218,218)" stroke-width="1" opacity="1.0" d="M 87.5 187.0 L 93.0 193.5 L 90.0 191.5 L 87.5 187.0 Z" /><path desc="l 12 p 185" fill="rgb(218,218,218)" stroke="rgb(218,218,218)" stroke-width="1" opacity="1.0" d="M 98.5 196.0 L 97.5 198.0 L 94.0 197.5 L 98.5 196.0 Z" /></svg>